<svg width="0" height="0" style="position:absolute"><symbol viewBox="0 0 16 15.556" id="arrow-left" xmlns="http://www.w3.org/2000/svg"><path d="M3.828 6.778H16v2H3.828l5.364 5.364-1.414 1.414L0 7.778 7.778 0l1.414 1.414-5.364 5.364z"/></symbol><symbol viewBox="0 0 16 15.556" id="arrow-right" xmlns="http://www.w3.org/2000/svg"><path d="M6.808 1.414L8.222 0 16 7.778l-7.778 7.778-1.414-1.414 5.364-5.364H0v-2h12.172L6.808 1.414z"/></symbol><symbol viewBox="0 0 9.546 5.834" id="arrowhead-bottom" xmlns="http://www.w3.org/2000/svg"><path d="M4.773 3.712L8.485 0l1.06 1.06-4.772 4.774L0 1.06 1.06 0l3.713 3.712z"/></symbol><symbol id="catalog" viewBox="0 0 43.7 43.7" xmlns="http://www.w3.org/2000/svg"><defs><style>.dcls-1{fill-rule:evenodd}</style></defs><path class="dcls-1" d="M4.371 0C1.976 0 0 1.974 0 4.37v11.652c0 2.396 1.976 4.37 4.371 4.37h11.65c2.397 0 4.372-1.974 4.372-4.37V4.37c0-2.396-1.975-4.37-4.371-4.37H4.372zm23.307 0c-2.396 0-4.37 1.974-4.37 4.37v11.652c0 2.396 1.974 4.37 4.37 4.37h11.65c2.396 0 4.372-1.974 4.372-4.37V4.37C43.7 1.974 41.724 0 39.329 0h-11.65zM4.371 23.307C1.976 23.307 0 25.282 0 27.678v11.65C0 41.725 1.976 43.7 4.371 43.7h11.65c2.397 0 4.372-1.976 4.372-4.371v-11.65c0-2.397-1.975-4.372-4.371-4.372H4.372zm29.13 0c-5.615 0-10.193 4.585-10.193 10.2S27.886 43.7 33.501 43.7 43.7 39.12 43.7 33.506s-4.585-10.2-10.2-10.2z"/></symbol><symbol viewBox="0 0 45.89 45.362" id="checked-star" xmlns="http://www.w3.org/2000/svg"><path d="M44.89 23.2a5.194 5.194 0 00.913-4.011 5.273 5.273 0 00-2.23-3.481l-3.098-2.102a1.035 1.035 0 01-.446-.785l-.276-3.715a5.242 5.242 0 00-1.89-3.672 5.325 5.325 0 00-3.947-1.231l-3.694.382a1.002 1.002 0 01-.87-.318l-2.61-2.675a5.33 5.33 0 00-7.6 0l-2.61 2.675a1.002 1.002 0 01-.871.318l-3.694-.382A5.35 5.35 0 006.13 9.106l-.276 3.715a1.071 1.071 0 01-.467.807L2.31 15.729a5.308 5.308 0 00-1.316 7.472l2.186 3.035a1.062 1.062 0 01.15.913l-1.02 3.587a5.328 5.328 0 00.53 4.097 5.264 5.264 0 003.291 2.483l3.609.913a1.04 1.04 0 01.7.595l1.528 3.396a5.304 5.304 0 007.154 2.61l3.354-1.612a1.033 1.033 0 01.934 0l3.353 1.613c.714.35 1.498.532 2.293.53.622 0 1.24-.108 1.825-.318a5.364 5.364 0 003.036-2.823l1.528-3.396a1.041 1.041 0 01.7-.595l3.61-.913a5.294 5.294 0 003.799-6.58l-.998-3.587a1.06 1.06 0 01.149-.913l2.186-3.035zm-12.248-3.947l-9.849 9.849a4.715 4.715 0 01-6.623 0l-2.93-2.93a2.292 2.292 0 010-3.268 2.332 2.332 0 013.27 0l2.93 2.929 9.955-9.85a2.304 2.304 0 113.247 3.27z"/></symbol><symbol viewBox="0 0 8 16" id="facebook" xmlns="http://www.w3.org/2000/svg"><path d="M7.476 9l.415-2.896H5.297V4.225c0-.792.362-1.565 1.524-1.565H8V.196S6.93 0 5.907 0C3.77 0 2.375 1.387 2.375 3.897v2.208H0V9h2.375v7h2.922V9h2.179z"/></symbol><symbol viewBox="0 0 19.901 19.762" id="globus" xmlns="http://www.w3.org/2000/svg"><path d="M0 10.88h5.478a17.9 17.9 0 002.925 8.882A10.005 10.005 0 010 10.88zm0-2A10.005 10.005 0 018.403 0a17.9 17.9 0 00-2.925 8.88H0zm19.901 0h-5.478A17.9 17.9 0 0011.5 0 10.005 10.005 0 0119.9 8.88zm0 2a10.005 10.005 0 01-8.402 8.882 17.9 17.9 0 002.924-8.881h5.478zm-12.42 0h4.939a15.908 15.908 0 01-2.47 7.592 15.908 15.908 0 01-2.469-7.591zm0-2a15.908 15.908 0 012.47-7.59 15.908 15.908 0 012.469 7.59H7.48z"/></symbol><symbol viewBox="0 0 16 16" id="in" xmlns="http://www.w3.org/2000/svg"><path d="M3.582 16H.265V5.318h3.317V16zM1.922 3.86C.86 3.86 0 2.983 0 1.922a1.921 1.921 0 113.842 0c0 1.06-.86 1.94-1.92 1.94zM15.996 16h-3.31v-5.2c0-1.24-.025-2.829-1.724-2.829-1.725 0-1.99 1.347-1.99 2.74V16H5.66V5.318h3.18v1.457h.047c.443-.84 1.525-1.725 3.139-1.725C15.383 5.05 16 7.26 16 10.132V16h-.003z"/></symbol><symbol viewBox="0 0 16 16" id="instagram" xmlns="http://www.w3.org/2000/svg"><path d="M8 0C5.825 0 5.554.01 4.703.047 3.848.089 3.27.22 2.76.419c-.526.206-.974.48-1.416.925-.446.442-.722.89-.925 1.416-.198.51-.33 1.088-.372 1.943C.008 5.555 0 5.825 0 8s.01 2.446.047 3.297c.042.852.174 1.433.372 1.943.206.526.48.974.925 1.416.442.446.89.722 1.416.925.51.196 1.091.33 1.943.373C5.555 15.992 5.825 16 8 16s2.446-.01 3.297-.046c.852-.042 1.433-.178 1.943-.373.526-.206.974-.48 1.416-.925.446-.442.722-.888.925-1.416.196-.51.33-1.091.373-1.943.038-.852.046-1.122.046-3.297s-.01-2.446-.046-3.297c-.042-.852-.178-1.436-.373-1.943a3.923 3.923 0 00-.925-1.416A3.858 3.858 0 0013.24.419c-.51-.198-1.091-.33-1.943-.372C10.445.008 10.175 0 8 0zm0 1.44c2.136 0 2.39.01 3.235.047.779.036 1.203.166 1.484.276.376.146.638.318.922.599.279.278.45.544.596.92.11.281.24.705.277 1.484.036.844.046 1.1.046 3.235s-.01 2.39-.05 3.234c-.041.779-.171 1.203-.28 1.485-.152.375-.321.638-.6.922-.282.278-.55.45-.922.596-.278.11-.709.24-1.49.276-.849.036-1.099.047-3.24.047s-2.39-.01-3.24-.05c-.779-.042-1.209-.172-1.49-.281a2.51 2.51 0 01-.92-.6 2.403 2.403 0 01-.598-.922c-.112-.278-.24-.708-.282-1.49-.028-.838-.042-1.098-.042-3.23 0-2.13.014-2.39.042-3.24.042-.781.17-1.21.282-1.49.138-.38.317-.64.598-.921.279-.279.54-.459.92-.6.281-.11.7-.24 1.482-.278.849-.03 1.099-.042 3.237-.042L8 1.44zm0 2.454a4.105 4.105 0 00-4.107 4.107A4.105 4.105 0 008 12.108a4.105 4.105 0 004.107-4.107A4.105 4.105 0 008 3.894zm0 6.774c-1.474 0-2.667-1.193-2.667-2.667S6.526 5.334 8 5.334s2.667 1.193 2.667 2.667S9.474 10.668 8 10.668zm5.233-6.938a.962.962 0 01-1.923 0 .961.961 0 011.923 0z"/></symbol><symbol viewBox="0 0 42.905 45.91" id="lupe-document" xmlns="http://www.w3.org/2000/svg"><path d="M28.353 23.867c-2.918 0-5.669 1.486-7.355 3.974a.66.66 0 000 .744c1.686 2.489 4.437 3.974 7.355 3.974 2.917 0 5.667-1.485 7.357-3.973a.665.665 0 000-.745c-1.69-2.489-4.44-3.974-7.357-3.974zm0 7.367c-1.456 0-2.641-1.356-2.641-3.021 0-1.666 1.185-3.02 2.641-3.02 1.455 0 2.639 1.354 2.639 3.02 0 1.665-1.184 3.02-2.639 3.02zm14.202 13.895l-.65.547a.994.994 0 01-1.398-.116l-5.6-6.637a12.66 12.66 0 002.235-1.746l5.53 6.554a.996.996 0 01-.117 1.398zm-5.62-24.157a11.147 11.147 0 00-7.633-3.947 11.135 11.135 0 00-4.386.493 11.225 11.225 0 00-3.804 2.114 11.21 11.21 0 00-3.982 8.591 11.177 11.177 0 002.64 7.23 11.156 11.156 0 007.634 3.95 11.237 11.237 0 004.008-.38 11.09 11.09 0 002.153-.86l.012-.007c.71-.376 1.387-.83 2.017-1.362 4.732-3.991 5.333-11.089 1.34-15.822zm-3.107 13.73a8.426 8.426 0 01-6.193 1.972 8.434 8.434 0 01-5.773-2.984 8.462 8.462 0 01-1.997-5.47 8.472 8.472 0 013.012-6.496 8.427 8.427 0 016.193-1.973 8.431 8.431 0 015.773 2.985 8.437 8.437 0 011.972 6.195 8.427 8.427 0 01-2.987 5.771zm-6.536 6.02a12.472 12.472 0 01-8.883-4.845H3.976a.662.662 0 110-1.325h13.539c-.438-.75-.792-1.531-1.062-2.334H3.976a.663.663 0 010-1.326H16.09a12.63 12.63 0 01-.28-2.336H3.975a.663.663 0 010-1.326h11.868c.062-.788.198-1.57.407-2.336H3.976a.663.663 0 010-1.326h12.717a12.5 12.5 0 011.224-2.333H3.976a.663.663 0 010-1.326h14.963a12.571 12.571 0 012.75-2.336H3.976a.663.663 0 010-1.325h20.557a12.532 12.532 0 014.88-.545c.501.043.995.115 1.48.215V2.265A2.27 2.27 0 0028.625 0H2.265A2.268 2.268 0 00.001 2.265v38.563a2.27 2.27 0 002.266 2.268h26.359a2.27 2.27 0 002.268-2.268v-.315a12.54 12.54 0 01-3.601.21zM3.976 5.265h12.935a.663.663 0 010 1.326H3.976a.663.663 0 010-1.326zm0 3.662h22.941a.663.663 0 010 1.325H3.976a.662.662 0 110-1.325zm0 3.66h22.941a.663.663 0 010 1.324H3.976a.662.662 0 110-1.325z"/></symbol><symbol viewBox="0 0 44.562 44.565" id="lupe-star" xmlns="http://www.w3.org/2000/svg"><path d="M42.98 35.32l-6.722-6.72a5.429 5.429 0 00-6.587-.833l-1.496-1.497a15.902 15.902 0 003.772-10.297C31.947 7.166 24.78 0 15.973 0S0 7.166 0 15.974s7.166 15.973 15.973 15.973c3.92 0 7.514-1.42 10.296-3.771l1.495 1.496a5.432 5.432 0 00.833 6.59l6.721 6.72a5.406 5.406 0 003.831 1.583 5.399 5.399 0 003.83-1.583 5.38 5.38 0 001.583-3.832c0-1.45-.563-2.81-1.583-3.83zm-27.007-6.068c-7.321 0-13.278-5.957-13.278-13.278S8.652 2.696 15.973 2.696s13.278 5.956 13.278 13.278-5.956 13.278-13.278 13.278zm7.674-15.931c.155.476.033.998-.315 1.356l-2.609 2.682.534 3.701a1.348 1.348 0 01-1.928 1.402l-3.356-1.65-3.355 1.65a1.348 1.348 0 01-1.928-1.401l.532-3.702-2.607-2.682a1.348 1.348 0 01.737-2.268l3.686-.635 1.743-3.308a1.348 1.348 0 012.384 0l1.744 3.308 3.686.636c.492.085.898.435 1.052.911z"/></symbol><symbol viewBox="0 0 42 42" id="message-outline" xmlns="http://www.w3.org/2000/svg"><path d="M21 42c-3.285 0-6.431-.737-9.35-2.191-.524-.262-1.089-.329-1.593-.198l-4.452 1.192a3.556 3.556 0 01-3.476-.932 3.564 3.564 0 01-.932-3.476l1.191-4.453c.134-.502.065-1.067-.196-1.59A20.795 20.795 0 010 21C0 9.42 9.42 0 21 0s21 9.42 21 21-9.42 21-21 21zm-10.424-4.455c.664 0 1.337.16 1.965.474A18.809 18.809 0 0021 40c10.477 0 19-8.523 19-19S31.477 2 21 2 2 10.523 2 21c0 2.973.667 5.818 1.982 8.46.479.96.599 2.025.338 3l-1.191 4.452c-.15.559.006 1.136.414 1.545s.987.562 1.545.414L9.54 37.68c.336-.09.684-.135 1.035-.135zM30 18a1 1 0 00-1-1H13a1 1 0 000 2h16a1 1 0 001-1zm-5 7a1 1 0 00-1-1H13a1 1 0 100 2h11a1 1 0 001-1z"/></symbol><symbol viewBox="0 0 46 44.151" id="messages" xmlns="http://www.w3.org/2000/svg"><path d="M15.689 30.304c-4.894-4.805-6.812-12.17-4.988-18.76-10.777 4.09-14.196 17.784-6.63 26.48l-2.129 6.127 6.844-2.377c7.532 4.136 17.527 1.435 21.945-5.855a19.26 19.26 0 01-15.042-5.615z"/><path d="M42.378 26.99c8.66-10.744.79-27.054-13.02-26.99-9.246-.038-16.697 7.675-16.636 16.636 0 9.173 7.463 16.635 16.636 16.635 2.743.01 5.408-.677 7.842-1.951l6.844 2.377-2.129-6.126.463-.58zM21.55 22.621l-2.518-.959L24.35 7.695l2.42-.003 5.272 13.974-2.522.951-.9-2.384h-6.16l-.91 2.388zm16.925.026h-2.695v-7.275h2.695v7.275zm0-10.473h-2.695V9.479h2.695v2.695z"/><path d="M25.555 12.107l-2.068 5.43h4.118l-2.05-5.43z"/></symbol><symbol viewBox="0 0 47 38" id="profile-outline" xmlns="http://www.w3.org/2000/svg"><path d="M16.5 18c-3.033 0-5.5-2.467-5.5-5.5S13.467 7 16.5 7 22 9.467 22 12.5 19.533 18 16.5 18zm0-9c-1.93 0-3.5 1.57-3.5 3.5s1.57 3.5 3.5 3.5 3.5-1.57 3.5-3.5S18.43 9 16.5 9zM16 31c-8.556 0-10-1.696-10-5.5 0-3.084 4.393-5.5 10-5.5s10 2.416 10 5.5c0 3.804-1.443 5.5-10 5.5zm0-9c-4.714 0-8 1.845-8 3.5 0 2.107 0 3.5 8 3.5s8-1.393 8-3.5c0-1.655-3.286-3.5-8-3.5z"/><path d="M28 38h-9c-8.75 0-13.142 0-16.07-2.929C0 32.141 0 27.75 0 19S0 5.858 2.93 2.93C5.857 0 10.25 0 19 0h9c8.75 0 13.142 0 16.071 2.93C47 5.857 47 10.25 47 19s0 13.142-2.929 16.071C41.141 38 36.75 38 28 38zM19 2C10.801 2 6.686 2 4.343 4.343S2 10.801 2 19c0 8.198 0 12.313 2.343 14.657C6.686 36 10.801 36 19 36h9c8.198 0 12.313 0 14.657-2.343C45 31.313 45 27.198 45 19c0-8.199 0-12.314-2.343-14.657C40.313 2 36.198 2 28 2h-9z"/><path d="M39 20h-9a1 1 0 110-2h9a1 1 0 110 2zM39 13H28a1 1 0 110-2h11a1 1 0 110 2zM39 27h-7a1 1 0 110-2h7a1 1 0 110 2z"/></symbol><symbol viewBox="0 0 45.037 46.009" id="user" xmlns="http://www.w3.org/2000/svg"><path d="M18.856 21.742c.018 0 .036.01.045.01.108.017.216.026.333.044.036 0 .063.01.098.01l.288.026c.036 0 .08.009.117.009.09.009.189.009.278.018.036 0 .072 0 .117.009.126.009.26.009.387.009.125 0 .26 0 .386-.009.036 0 .072 0 .117-.009.09 0 .188-.009.278-.018.036 0 .081-.009.117-.009l.278-.027c.036 0 .072-.009.1-.009.107-.009.215-.027.323-.045.018 0 .036-.009.054-.009a11.86 11.86 0 001.58-.36l.109-.026a10.868 10.868 0 005.93-4.627 10.85 10.85 0 001.653-5.714c.017-2.911-1.106-5.66-3.172-7.754A10.824 10.824 0 0020.582 0h-.064a10.861 10.861 0 00-7.708 3.18 10.88 10.88 0 00-3.226 7.754c0 2.057.575 4.052 1.654 5.786a10.9 10.9 0 005.884 4.618c.054.018.108.027.162.045.503.161 1.033.278 1.572.36zM44.22 33.206l-5.517-3.18a1.607 1.607 0 00-1.608 0l-5.508 3.18a1.61 1.61 0 00-.8 1.393v3.135a7.217 7.217 0 003.603 6.244l3.522 2.031 3.522-2.03a7.206 7.206 0 003.603-6.245V34.59a1.624 1.624 0 00-.818-1.384zm-2.076 3.495l-4.178 4.178a1.997 1.997 0 01-1.698.575 2.027 2.027 0 01-1.491-.997l-1.339-2.327a1.386 1.386 0 01.512-1.896 1.386 1.386 0 011.896.512l.189.324.664 1.15 1.797-1.797 1.69-1.69a1.4 1.4 0 011.967 0c.53.549.53 1.43-.01 1.968zM20.518 24.644c-1.383 0-2.758-.206-4.07-.61a12.666 12.666 0 00-3.755-.576c-4.196 0-8.158 2.12-10.368 5.795a21.185 21.185 0 00-2.282 5.355c-.135.512.054 1.06.476 1.366 5.849 4.204 12.767 6.432 20 6.432 1.374 0 2.749-.08 4.123-.242a13.776 13.776 0 01-.656-4.25 13.927 13.927 0 019.623-13.252 12.534 12.534 0 00-9.02-.62c-1.321.395-2.687.602-4.07.602z"/></symbol><symbol viewBox="0 0 34 42" id="user-outline" xmlns="http://www.w3.org/2000/svg"><path d="M15 18c4.963 0 9-4.038 9-9s-4.037-9-9-9c-4.962 0-9 4.038-9 9s4.038 9 9 9zm0-16c3.86 0 7 3.14 7 7s-3.14 7-7 7-7-3.14-7-7 3.14-7 7-7zm10 22c-.201 0-.398.017-.596.03l.029-.06C21.787 22.7 18.437 22 15 22c-8.411 0-15 3.953-15 9s6.589 9 15 9c1.357 0 2.696-.113 3.987-.323A8.953 8.953 0 0025 42c4.963 0 9-4.037 9-9s-4.037-9-9-9zM2 31c0-3.794 5.953-7 13-7 2.168 0 4.283.306 6.17.867C18.12 26.31 16 29.407 16 33c0 1.79.531 3.456 1.436 4.859-.8.084-1.612.141-2.436.141-7.047 0-13-3.206-13-7zm23 9c-3.86 0-7-3.14-7-7s3.14-7 7-7 7 3.14 7 7-3.14 7-7 7zm3.362-9.495a1 1 0 01.022 1.414l-3.666 3.777A1.001 1.001 0 0124 36l-.038-.001a1 1 0 01-.73-.358l-1.668-2a1.001 1.001 0 011.538-1.282l.955 1.147 2.891-2.98a1 1 0 011.414-.021z"/></symbol><symbol viewBox="0 0 46 40" id="users-outline" xmlns="http://www.w3.org/2000/svg"><path d="M23 18c-4.962 0-9-4.038-9-9s4.038-9 9-9c4.963 0 9 4.038 9 9s-4.037 9-9 9zm0-16c-3.86 0-7 3.14-7 7s3.14 7 7 7 7-3.14 7-7-3.14-7-7-7zm19 8c0-3.309-3.14-6-7-6a1 1 0 100 2c2.757 0 5 1.794 5 4s-2.243 4-5 4a1 1 0 100 2c3.86 0 7-2.691 7-6zm-30 5a1 1 0 00-1-1c-2.757 0-5-1.794-5-4s2.243-4 5-4a1 1 0 000-2c-3.86 0-7 2.691-7 6s3.14 6 7 6a1 1 0 001-1zm11 25c-7.168 0-13-4.037-13-9s5.832-9 13-9 13 4.037 13 9-5.832 9-13 9zm0-16c-6.065 0-11 3.14-11 7s4.935 7 11 7 11-3.14 11-7-4.935-7-11-7zm16.214 11.977C43.336 35.072 46 32.727 46 30s-2.664-5.072-6.786-5.977a1 1 0 10-.428 1.953C41.856 26.65 44 28.306 44 30s-2.145 3.35-5.214 4.023a1 1 0 10.428 1.954zm-31.237-.763a.999.999 0 00-.763-1.19C4.144 33.35 2 31.694 2 30s2.144-3.35 5.214-4.023a.999.999 0 10-.428-1.954C2.664 24.928 0 27.273 0 30s2.664 5.072 6.786 5.977a1 1 0 001.19-.763z"/></symbol></svg>