<svg width="215" height="199" viewBox="0 0 215 199" fill="none" xmlns="http://www.w3.org/2000/svg">
<rect opacity="0.18" x="65.2217" y="-25.5" width="59.3365" height="59.3365" rx="17.6538" fill="white"/>
<rect opacity="0.08" x="195.664" y="39.7211" width="59.3365" height="59.3365" rx="17.6538" fill="white"/>
<path opacity="0.18" d="M195.664 122.596C195.664 112.846 203.567 104.942 213.317 104.942H225.332C241.717 104.942 255 118.225 255 134.611C255 150.996 241.717 164.279 225.332 164.279H213.317C203.567 164.279 195.664 156.375 195.664 146.625V122.596Z" fill="white"/>
<path opacity="0.36" d="M213.318 170.409H225.332C241.581 170.409 254.755 183.582 254.755 199.831V211.846C254.755 221.461 246.961 229.255 237.346 229.255H213.318C203.703 229.255 195.909 221.461 195.909 211.846V187.818C195.909 178.203 203.703 170.409 213.318 170.409Z" stroke="white" stroke-width="0.490385"/>
<rect opacity="0.08" x="65.2217" y="104.942" width="59.3365" height="59.3365" rx="17.6538" fill="white"/>
<path opacity="0.36" d="M29.668 105.188H41.6826C51.2972 105.188 59.0918 112.982 59.0918 122.597V146.625C59.0918 156.24 51.2972 164.034 41.6826 164.034H17.6543C8.03976 164.034 0.245117 156.24 0.245117 146.625V134.61C0.245279 118.361 13.4183 105.188 29.668 105.188Z" stroke="white" stroke-width="0.490385"/>
<path opacity="0.18" d="M65.2217 69.3893C65.2217 53.004 78.5046 39.7211 94.8899 39.7211H106.904C116.654 39.7211 124.558 47.625 124.558 57.3749V81.4038C124.558 91.1537 116.654 99.0576 106.904 99.0576H82.8755C73.1256 99.0576 65.2217 91.1537 65.2217 81.4038V69.3893Z" fill="white" fill-opacity="0.55"/>
<path opacity="0.36" d="M160.11 39.9662H148.096C138.481 39.9662 130.687 47.7608 130.687 57.3754V69.389C130.687 85.639 143.86 98.8129 160.11 98.8129H172.124C181.739 98.8129 189.533 91.0182 189.533 81.4037V69.389C189.533 53.1394 176.36 39.9663 160.11 39.9662Z" stroke="white" stroke-width="0.490385"/>
</svg>
