<svg width="1440" height="1356" viewBox="0 0 1440 1356" fill="none" xmlns="http://www.w3.org/2000/svg">
<g opacity="0.35">
<path opacity="0.36" d="M1110.5 560.5H1086C1066.39 560.5 1050.5 576.394 1050.5 596V620.5C1050.5 653.637 1077.36 680.5 1110.5 680.5H1135C1154.61 680.5 1170.5 664.606 1170.5 645V620.5C1170.5 587.363 1143.64 560.5 1110.5 560.5Z" stroke="white"/>
<path opacity="0.18" d="M917 620.5C917 587.087 944.087 560 977.5 560H1002C1021.88 560 1038 576.118 1038 596V645C1038 664.882 1021.88 681 1002 681H953C933.118 681 917 664.882 917 645V620.5Z" fill="white" fill-opacity="0.55"/>
<path opacity="0.36" d="M844.5 693.5H869C888.606 693.5 904.5 709.394 904.5 729V778C904.5 797.606 888.606 813.5 869 813.5H820C800.394 813.5 784.5 797.606 784.5 778V753.5C784.5 720.363 811.363 693.5 844.5 693.5Z" stroke="white"/>
<rect opacity="0.08" x="917" y="693" width="121" height="121" rx="36" fill="white"/>
<path opacity="0.36" d="M1219 826.5H1243.5C1276.64 826.5 1303.5 853.363 1303.5 886.5V911C1303.5 930.606 1287.61 946.5 1268 946.5H1219C1199.39 946.5 1183.5 930.606 1183.5 911V862C1183.5 842.394 1199.39 826.5 1219 826.5Z" stroke="white"/>
<path opacity="0.18" d="M1183 729C1183 709.118 1199.12 693 1219 693H1243.5C1276.91 693 1304 720.087 1304 753.5C1304 786.913 1276.91 814 1243.5 814H1219C1199.12 814 1183 797.882 1183 778V729Z" fill="white"/>
<rect opacity="0.08" x="1183" y="560" width="121" height="121" rx="36" fill="white"/>
<rect opacity="0.18" x="917" y="427" width="121" height="121" rx="36" fill="white"/>
<g filter="url(#filter0_f_21_3205)">
<ellipse cx="1024" cy="681" rx="175" ry="180" fill="#7990FF" fill-opacity="0.53"/>
</g>
</g>
<g opacity="0.35">
<path opacity="0.36" d="M259 566.5H283.5C316.637 566.5 343.5 593.363 343.5 626.5V651C343.5 670.606 327.606 686.5 308 686.5H259C239.394 686.5 223.5 670.606 223.5 651V602C223.5 582.394 239.394 566.5 259 566.5Z" stroke="white"/>
<path opacity="0.18" d="M223 469C223 449.118 239.118 433 259 433H283.5C316.913 433 344 460.087 344 493.5C344 526.913 316.913 554 283.5 554H259C239.118 554 223 537.882 223 518V469Z" fill="white"/>
</g>
<g filter="url(#filter1_f_21_3205)">
<ellipse cx="1400" cy="982" rx="266" ry="273" fill="#7990FF" fill-opacity="0.17"/>
</g>
<g filter="url(#filter2_f_21_3205)">
<ellipse cx="223" cy="513" rx="223" ry="213" fill="#7990FF" fill-opacity="0.17"/>
</g>
<defs>
<filter id="filter0_f_21_3205" x="449" y="101" width="1150" height="1160" filterUnits="userSpaceOnUse" color-interpolation-filters="sRGB">
<feFlood flood-opacity="0" result="BackgroundImageFix"/>
<feBlend mode="normal" in="SourceGraphic" in2="BackgroundImageFix" result="shape"/>
<feGaussianBlur stdDeviation="200" result="effect1_foregroundBlur_21_3205"/>
</filter>
<filter id="filter1_f_21_3205" x="834" y="409" width="1132" height="1146" filterUnits="userSpaceOnUse" color-interpolation-filters="sRGB">
<feFlood flood-opacity="0" result="BackgroundImageFix"/>
<feBlend mode="normal" in="SourceGraphic" in2="BackgroundImageFix" result="shape"/>
<feGaussianBlur stdDeviation="150" result="effect1_foregroundBlur_21_3205"/>
</filter>
<filter id="filter2_f_21_3205" x="-300" y="0" width="1046" height="1026" filterUnits="userSpaceOnUse" color-interpolation-filters="sRGB">
<feFlood flood-opacity="0" result="BackgroundImageFix"/>
<feBlend mode="normal" in="SourceGraphic" in2="BackgroundImageFix" result="shape"/>
<feGaussianBlur stdDeviation="150" result="effect1_foregroundBlur_21_3205"/>
</filter>
</defs>
</svg>
