<svg width="1084" height="1504" viewBox="0 0 1084 1504" fill="none" xmlns="http://www.w3.org/2000/svg">
<g filter="url(#filter0_f_54_1426)">
<ellipse cx="381.604" cy="970.499" rx="81.6042" ry="233.5" fill="#7990FF" fill-opacity="0.17"/>
</g>
<g filter="url(#filter1_f_54_1426)">
<ellipse cx="117.208" cy="249.544" rx="117.208" ry="249.544" transform="matrix(0.554281 -0.83233 0.143977 0.989581 458.21 567.112)" fill="#7990FF" fill-opacity="0.26"/>
</g>
<g opacity="0.7">
<rect opacity="0.18" x="457.659" y="791" width="77.0212" height="77.0212" rx="22.9154" fill="white"/>
<rect opacity="0.08" x="626.979" y="875.659" width="77.0212" height="77.0212" rx="22.9154" fill="white"/>
<path opacity="0.18" d="M626.979 983.235C626.979 970.579 637.239 960.319 649.895 960.319H665.49C686.759 960.319 704.001 977.561 704.001 998.83C704.001 1020.1 686.759 1037.34 665.49 1037.34H649.895C637.239 1037.34 626.979 1027.08 626.979 1014.43V983.235Z" fill="white"/>
<path opacity="0.36" d="M649.895 1045.3H665.49C686.583 1045.3 703.683 1062.4 703.683 1083.49V1099.08C703.683 1111.56 693.565 1121.68 681.085 1121.68H649.895C637.415 1121.68 627.298 1111.56 627.298 1099.08V1067.89C627.298 1055.41 637.415 1045.3 649.895 1045.3Z" stroke="white" stroke-width="0.636539"/>
<rect opacity="0.08" x="457.659" y="960.319" width="77.0212" height="77.0212" rx="22.9154" fill="white"/>
<path opacity="0.36" d="M411.511 960.638H427.105C439.585 960.638 449.703 970.754 449.703 983.234V1014.42C449.703 1026.9 439.586 1037.02 427.105 1037.02H395.915C383.435 1037.02 373.318 1026.9 373.318 1014.42V998.83C373.318 977.737 390.418 960.638 411.511 960.638Z" stroke="white" stroke-width="0.636539"/>
<path opacity="0.18" d="M457.659 914.17C457.659 892.901 474.901 875.659 496.17 875.659H511.765C524.421 875.659 534.68 885.919 534.68 898.575V929.765C534.68 942.421 524.421 952.681 511.765 952.681H480.575C467.919 952.681 457.659 942.421 457.659 929.765V914.17Z" fill="white" fill-opacity="0.55"/>
<path opacity="0.36" d="M580.83 875.978H565.235C552.755 875.978 542.638 886.095 542.638 898.574V914.17C542.638 935.263 559.737 952.362 580.83 952.363H596.426C608.906 952.362 619.022 942.245 619.022 929.765V914.17C619.022 893.077 601.923 875.978 580.83 875.978Z" stroke="white" stroke-width="0.636539"/>
</g>
<rect opacity="0.04" x="373.683" y="396.104" width="67.0348" height="67.0348" rx="19.9443" fill="white"/>
<rect opacity="0.08" x="300" y="354" width="67.0348" height="67.0348" rx="19.9443" fill="white"/>
<path opacity="0.36" d="M333.518 446.242H347.091C357.953 446.243 366.758 455.048 366.758 465.909V493.056C366.758 503.918 357.953 512.723 347.091 512.723H319.944C309.082 512.723 300.277 503.918 300.277 493.056V479.483C300.277 461.124 315.159 446.242 333.518 446.242Z" stroke="url(#paint0_linear_54_1426)" stroke-width="0.554007"/>
<defs>
<filter id="filter0_f_54_1426" x="0" y="436.999" width="763.208" height="1067" filterUnits="userSpaceOnUse" color-interpolation-filters="sRGB">
<feFlood flood-opacity="0" result="BackgroundImageFix"/>
<feBlend mode="normal" in="SourceGraphic" in2="BackgroundImageFix" result="shape"/>
<feGaussianBlur stdDeviation="150" result="effect1_foregroundBlur_54_1426"/>
</filter>
<filter id="filter1_f_54_1426" x="34.8516" y="0.91333" width="1048.51" height="1431.17" filterUnits="userSpaceOnUse" color-interpolation-filters="sRGB">
<feFlood flood-opacity="0" result="BackgroundImageFix"/>
<feBlend mode="normal" in="SourceGraphic" in2="BackgroundImageFix" result="shape"/>
<feGaussianBlur stdDeviation="225" result="effect1_foregroundBlur_54_1426"/>
</filter>
<linearGradient id="paint0_linear_54_1426" x1="267.037" y1="458.43" x2="387.533" y2="462.308" gradientUnits="userSpaceOnUse">
<stop stop-color="white"/>
<stop offset="1" stop-color="white" stop-opacity="0"/>
</linearGradient>
</defs>
</svg>
