<?xml version="1.0" encoding="UTF-8"?>
<svg id="Layer_1" data-name="Layer 1" xmlns="http://www.w3.org/2000/svg" viewBox="0 0 22 18">
  <defs>
    <style>
      .cls-1, .cls-2 {
        fill: #fff;
      }

      .cls-2 {
        isolation: isolate;
        opacity: .5;
      }
    </style>
  </defs>
  <path class="cls-2" d="M13.2,0h-4.4C4.65164,0,2.57746,0,1.28873,1.31802,0,2.63604,0,4.75736,0,9s0,6.364,1.28873,7.682c1.28873,1.318,3.36291,1.318,7.51127,1.318h4.4c4.1484,0,6.2225,0,7.5113-1.318,1.2887-1.318,1.2887-3.4394,1.2887-7.682s0-6.36396-1.2887-7.68198c-1.2888-1.31802-3.3629-1.31802-7.5113-1.31802Z"/>
  <path class="cls-1" d="M18.1284,5.034c.35-.29169,.3973-.81191,.1056-1.16194-.2917-.35002-.8119-.39732-1.1619-.10563l-2.3748,1.97899c-1.0263,.85521-1.7388,1.44708-2.3403,1.83398-.5823,.3745-.9772,.5002-1.3568,.5002s-.7744-.1257-1.3567-.5002c-.6016-.3869-1.31409-.97877-2.34035-1.83398l-2.37478-1.97899c-.35003-.29169-.87025-.24439-1.16194,.10563-.29169,.35003-.24439,.87025,.10563,1.16194l2.41615,2.0135c.97499,.8125,1.76523,1.471,2.46269,1.9196,.7266,.4673,1.4341,.7625,2.2493,.7625s1.5228-.2952,2.2493-.7625c.6975-.4486,1.4877-1.1071,2.4627-1.9197l2.4162-2.0134Z"/>
</svg>