<?xml version="1.0" encoding="UTF-8"?>
<svg id="Layer_1" data-name="Layer 1" xmlns="http://www.w3.org/2000/svg" viewBox="0 0 16.5 13.5">
  <defs>
    <style>
      .cls-1 {
        isolation: isolate;
        opacity: .5;
      }

      .cls-1, .cls-2 {
        fill: #4361ee;
      }
    </style>
  </defs>
  <path class="cls-1" d="M9.9,0h-3.3C3.48873,0,1.9331,0,.96655,.98851c-.96655,.98852-.96655,2.57951-.96655,5.76149s0,4.773,.96655,5.7615c.96655,.9885,2.52218,.9885,5.63345,.9885h3.3c3.1113,0,4.6669,0,5.6335-.9885,.9665-.9885,.9665-2.5795,.9665-5.7615s0-4.77297-.9665-5.76149c-.9666-.98851-2.5222-.98851-5.6335-.98851Z"/>
  <path class="cls-2" d="M13.5965,3.7755c.2625-.21877,.298-.60893,.0792-.87145-.2187-.26252-.6089-.29799-.8714-.07922l-1.7811,1.48423c-.7697,.64142-1.3041,1.08529-1.7552,1.37546-.43675,.28088-.73291,.37516-1.01759,.37516s-.58085-.09428-1.01757-.37516c-.45116-.29017-.98554-.73404-1.75523-1.37545l-1.78109-1.48424c-.26252-.21877-.65268-.1833-.87145,.07922-.21877,.26252-.1833,.65268,.07922,.87145l1.81211,1.51009c.73124,.60939,1.32393,1.10331,1.84703,1.43974,.54491,.35047,1.07559,.57185,1.68698,.57185s1.14209-.22138,1.68699-.57185c.5231-.33643,1.1158-.83036,1.847-1.43975l1.8121-1.51008Z"/>
</svg>