<?xml version="1.0" encoding="UTF-8"?>
<svg id="Layer_1" data-name="Layer 1" xmlns="http://www.w3.org/2000/svg" viewBox="0 0 19.99998 19.99932">
  <defs>
    <style>
      .cls-1 {
        isolation: isolate;
        opacity: .5;
      }

      .cls-1, .cls-2 {
        fill: #17171f;
      }

      .cls-2 {
        fill-rule: evenodd;
      }
    </style>
  </defs>
  <path class="cls-2" d="M14.245,5.76015L19.4166,.58855l-.0026-.0026c-1.1872-1.18726-3.4364-.43753-7.9348,1.06193l-5.14933,1.71644C2.69923,4.57453,.88392,5.17964,.36806,6.06698c-.49075,.84414-.49075,1.88671,0,2.73082,.51586,.8874,2.33117,1.4925,5.96181,2.7027,.44994,.15,.95614,.0429,1.29307-.2909l5.50566-5.45465c.3097-.30687,.8096-.30454,1.1164,.0052Z"/>
  <path class="cls-1" d="M16.6356,13.6695l1.7165-5.1494c1.4984-4.49507,2.2481-6.74426,1.0645-7.93221l-5.1716,5.1716c.3069,.30974,.3045,.8096-.0052,1.11647l-5.4167,5.36654c-.3714,.3679-.4889,.931-.3236,1.427,1.2102,3.6306,1.8153,5.4459,2.7026,5.9618,.8442,.4907,1.8867,.4907,2.7309,0,.8873-.5159,1.4924-2.3312,2.7026-5.9618Z"/>
</svg>