<?xml version="1.0" encoding="UTF-8"?>
<svg id="Layer_1" data-name="Layer 1" xmlns="http://www.w3.org/2000/svg" viewBox="0 0 36.97123 37.10897">
  <defs>
    <style>
      .cls-1 {
        fill: #4361ee;
      }
    </style>
  </defs>
  <path class="cls-1" d="M36.24616,19.07768l-.98706-1.25421c-.74963-.94263-.92786-2.21179-.48242-3.33252l.59369-1.48431c.75702-1.85547-.2746-3.94104-2.1969-4.48285l-1.53632-.43048c-1.15778-.32654-2.05591-1.24683-2.34528-2.41211l-.39343-1.55115c-.48975-1.93713-2.5531-3.02069-4.4234-2.32306l-1.49915,.56409c-1.12823,.42303-2.39734,.20038-3.31763-.57147l-1.21722-1.01678c-1.53625-1.284-3.84448-.95001-4.95038,.71991l-.87579,1.32104c-.66791,1.00201-1.8183,1.57349-3.02069,1.49182l-1.58826-.11133c-1.99646-.13361-3.66638,1.49182-3.57733,3.48828l.06677,1.58826c.05194,1.20233-.54919,2.34534-1.56598,2.98364l-1.35822,.84613c-1.6922,1.06128-2.08557,3.35461-.84613,4.92065l.98712,1.25433c.74963,.9425,.92773,2.21167,.48242,3.3324l-.59375,1.48438c-.74219,1.85541,.28949,3.94104,2.21173,4.47534l1.53632,.43048c1.15784,.3266,2.05585,1.24689,2.34534,2.41211l.39331,1.55121c.48987,1.93707,2.55316,3.02069,4.42346,2.323l1.49176-.55664c1.12823-.42297,2.39734-.20038,3.31763,.57153l1.21716,1.01678c1.53632,1.284,3.84454,.95001,4.95044-.71991l.87579-1.32111c.66791-1.00195,1.8183-1.57349,3.02069-1.49176l1.5882,.11127c1.99652,.13361,3.6665-1.49176,3.57739-3.48828l-.06677-1.58832c-.052-1.20227,.54919-2.34528,1.56598-2.98358l1.35083-.84601c1.6922-1.0614,2.08551-3.35468,.84607-4.92078Zm-25.54608,4.02271l1.15778,2.35266-1.35815,.66803-2.8797-5.841,3.90387-1.92969,.51959,1.04645-2.54572,1.25433,.69025,1.40271,2.13745-1.05389,.51215,1.04651-2.13751,1.05389Zm7.80042-.92035c-.1485-.02966-.28955-.14099-.4231-.33398-.13361-.19299-.24493-.37848-.34143-.56409l-.17072-.3562c-.13361-.2746-.31909-.4527-.5343-.52698-.22266-.07422-.47498-.04449-.75708,.0965l-.72729,.35626,1.10577,2.24139-1.35815,.66803-2.8797-5.84113,2.03357-1.00189c.67542-.33398,1.29138-.44531,1.8407-.3266,.54919,.11884,.9574,.44531,1.22461,.99463,.14838,.3042,.20038,.60107,.14838,.89801-.05188,.29688-.20038,.58624-.44525,.87579,.4082-.07422,.74957-.02972,1.02417,.12616,.2746,.16321,.49731,.41559,.66803,.77179l.18549,.37115c.07428,.15588,.18561,.31165,.3266,.48987,.14099,.17072,.28937,.2746,.44531,.30432l.03705,.06677-1.40265,.69019Zm2.24139-1.1059l-2.8797-5.841,3.82971-1.89258,.51208,1.04651-2.4715,1.21722,.62347,1.25427,2.05579-1.01678,.51215,1.04651-2.05585,1.01678,.71991,1.45471,2.4715-1.21722,.51215,1.04651-3.82971,1.88507Zm4.80188-2.36749l-2.87958-5.84106,3.82959-1.89252,.5047,1.04639-2.4715,1.21722,.62347,1.25427,2.05579-1.01678,.51221,1.04651-2.05591,1.01678,.71991,1.45471,2.4715-1.21722,.51215,1.04651-3.82233,1.88519Zm-9.3363-.38599c.11133,.23749,.1261,.45282,.04449,.64569-.08167,.20044-.25977,.36371-.53436,.49731l-.6828,.34137-.74963-1.5141,.67542-.33386c.2746-.13361,.52692-.17822,.74219-.10388,.21521,.07416,.38593,.22998,.5047,.46747Z"/>
</svg>