<svg width="38" height="38" viewBox="0 0 38 38" fill="none" xmlns="http://www.w3.org/2000/svg">
<path d="M33.6803 8.97304L32.144 8.54257C30.9862 8.21601 30.0881 7.2957 29.7987 6.13046L29.4053 4.57929C28.9155 2.64218 26.8522 1.55859 24.9819 2.25625L23.4827 2.82031C22.3545 3.24335 21.0854 3.0207 20.1651 2.24882L18.9479 1.23203C17.4116 -0.0519577 15.1034 0.282027 13.9975 1.95195L13.1217 3.27304C12.4538 4.275 11.3034 4.84648 10.101 4.76484L8.51275 4.65351C6.51627 4.51992 4.84635 6.14531 4.93541 8.14179L5.00221 9.73007C5.05416 10.9324 4.45299 12.0754 3.43619 12.7137L2.07799 13.5598C0.3858 14.6211 -0.00755918 16.9144 1.23189 18.4805L2.219 19.7348C2.96861 20.6773 3.14674 21.9465 2.70143 23.0672L2.10768 24.5516C1.36549 26.407 2.39713 28.4926 4.31939 29.0269L5.85572 29.4574C7.01354 29.784 7.91158 30.7043 8.20103 31.8695L8.59439 33.4207C9.08424 35.3578 11.1475 36.4414 13.0178 35.7437L14.5096 35.1871C15.6378 34.7641 16.9069 34.9867 17.8272 35.7586L19.0444 36.7754C20.5807 38.0594 22.8889 37.7254 23.9948 36.0555L24.8706 34.7344C25.5385 33.7324 26.6889 33.1609 27.8913 33.2426L29.4795 33.3539C31.476 33.4875 33.146 31.8621 33.0569 29.8656L32.9901 28.2773C32.9381 27.075 33.5393 25.932 34.5561 25.2937L35.9069 24.4477C37.5991 23.3863 37.9924 21.093 36.753 19.5269L35.7659 18.2727C35.0163 17.3301 34.8381 16.0609 35.2835 14.9402L35.8772 13.4559C36.6342 11.6004 35.6026 9.51484 33.6803 8.97304ZM12.5503 19.8461L10.0046 21.1004L10.6948 22.5031L12.8323 21.4492L13.3444 22.4957L11.2069 23.5496L12.3647 25.9023L11.0065 26.5703L8.12682 20.7293L12.0307 18.7996L12.5503 19.8461ZM20.41 21.9391L19.0073 22.6293C18.8588 22.5996 18.7178 22.4883 18.5842 22.2953C18.4506 22.1023 18.3393 21.9168 18.2428 21.7312L18.0721 21.375C17.9385 21.1004 17.753 20.9223 17.5378 20.848C17.3151 20.7738 17.0628 20.8035 16.7807 20.9445L16.0534 21.3008L17.1592 23.5422L15.801 24.2102L12.9213 18.3691L14.9549 17.3672C15.6303 17.0332 16.2463 16.9219 16.7956 17.0406C17.3448 17.1594 17.753 17.4859 18.0202 18.0352C18.1686 18.3394 18.2206 18.6363 18.1686 18.9332C18.1167 19.2301 17.9682 19.5195 17.7233 19.809C18.1315 19.7348 18.4729 19.7793 18.7475 19.9352C19.0221 20.0984 19.2448 20.3508 19.4155 20.707L19.601 21.0781C19.6753 21.234 19.7866 21.3898 19.9276 21.568C20.0686 21.7387 20.217 21.8426 20.3729 21.8723L20.41 21.9391ZM22.7108 14.8363L20.2393 16.0535L20.8628 17.3078L22.9186 16.291L23.4307 17.3375L21.3749 18.3543L22.0948 19.809L24.5663 18.5918L25.0784 19.6383L21.2487 21.5234L18.369 15.6824L22.1987 13.7898L22.7108 14.8363ZM27.5053 12.4687L25.0338 13.6859L25.6573 14.9402L27.7131 13.9234L28.2253 14.9699L26.1694 15.9867L26.8893 17.4414L29.3608 16.2242L29.8729 17.2707L26.0506 19.1559L23.171 13.3148L27.0006 11.4223L27.5053 12.4687Z" fill="#4361EE"/>
<path d="M15.4669 18.4063L14.7915 18.7402L15.5411 20.2543L16.2239 19.9129C16.4985 19.7793 16.6767 19.616 16.7583 19.4156C16.8399 19.2227 16.8251 19.0074 16.7138 18.7699C16.595 18.5324 16.4243 18.3766 16.2091 18.3024C15.9938 18.2281 15.7415 18.2727 15.4669 18.4063Z" fill="#4361EE"/>
</svg>
