<?xml version="1.0" encoding="UTF-8"?>
<svg id="Layer_1" data-name="Layer 1" xmlns="http://www.w3.org/2000/svg" viewBox="0 0 37.63082 37.99986">
  <defs>
    <style>
      .cls-1 {
        fill: #4361ee;
      }
    </style>
  </defs>
  <path class="cls-1" d="M7.30566,9.26799c.90637,.93097,1.93231,1.73816,3.05048,2.39996-.64301,1.86243-1.00366,3.8974-1.04932,6.13391H4.0332c.09796-3.13202,1.25085-6.13922,3.27246-8.53387ZM15.57355,4.45329c-2.91022,.52759-5.57947,1.9613-7.62628,4.09644,.8194,.84991,1.74481,1.59064,2.75317,2.20465,1.07184-2.61279,2.73053-4.77539,4.87311-6.30109Zm-4.87311,21.34674c-1.00836,.61401-1.93378,1.35486-2.75317,2.20471,2.04681,2.13513,4.71606,3.56879,7.62628,4.09613-2.14258-1.52539-3.80103-3.68829-4.87311-6.30084Zm.52533-1.37878c1.98376-1.01147,4.16815-1.56689,6.3941-1.62646v-4.03442h-7.35321c.0365,1.92419,.35968,3.83221,.95911,5.66089Zm6.39429-.66736c-2.1076,.06488-4.17383,.60156-6.04681,1.57037,1.23212,3.06549,3.25122,5.47302,6.04681,6.88519v-8.45557Zm-.00018-9.99414c-2.22565-.05841-4.41034-.61249-6.3941-1.6225-.6059,1.82843-.9295,3.73859-.95911,5.66461h7.35321v-4.04211Zm.00018-9.41479c-2.79559,1.41223-4.81433,3.8197-6.04681,6.88531,1.87299,.96881,3.93921,1.50537,6.04681,1.57031V4.34496Zm.95807,23.39893c.07996-1.37781,.58942-2.6936,1.28424-3.88922-.42493-.0528-.88483-.08612-1.28424-.10077v3.98999Zm6.35791-15.6319c-1.9707,1.01465-4.14258,1.57758-6.35791,1.64746v4.04242h7.29645c-.04431-2.07672-.35724-3.96039-.93854-5.68988Zm7.12921,7.35199c.01971-.23462,.03473-.46393,.04279-.70361h-5.2746c-.00128,.0799-.00311,.14539-.00531,.21881,.56781-.09863,1.14325-.14832,1.71985-.14893,1.20087-.0022,2.39246,.21252,3.51727,.63373Zm-11.53357,3.34479c.08667-.1142,.17657-.22681,.2674-.336,1.28918-1.56073,3.02087-2.69458,4.96698-3.25208,.03119-.00916,.06238-.01532,.09332-.02411,.00616-.146,.01147-.27643,.01489-.43622h-7.29614v4.03442c.61993,.0224,1.2384,.0802,1.85181,.17279,.0387-.05273,.06183-.10638,.10175-.15881Zm11.57568-5.0069c-.10199-3.14978-1.2674-6.1723-3.3067-8.57507-.89899,.93256-1.91681,1.74316-3.02722,2.41089,.6499,1.87061,1.01434,3.92767,1.06024,6.16418h5.27368Zm-13.52924-5.00159c2.10553-.07739,4.16724-.6225,6.03595-1.59589-1.23309-3.05347-3.32013-5.45129-6.03595-6.85944V12.80028Zm6.84985-2.07709c1-.6181,1.91669-1.36133,2.72888-2.21155-2.04248-2.1142-4.69708-3.53387-7.58954-4.05835,2.13452,1.51978,3.78851,3.67145,4.86066,6.2699ZM7.30566,27.29118c.90637-.93103,1.93231-1.73822,3.05048-2.40002-.64301-1.86212-1.00366-3.89423-1.04932-6.1308H4.0332c.09796,3.1311,1.25116,6.13739,3.27246,8.53082Zm19.56818-4.60535c-.47211,.14191-.79352,.5791-.78778,1.07214v.20245c.4411-.03186,.85138-.23834,1.14008-.57349-.13361-.22528-.25116-.45959-.35229-.70111Zm1.82874,2.16913c-.34351-.16821-.6521-.40002-.90955-.68298-.45178,.45868-1.06281,.72607-1.70605,.74701v1.53815c0,1.21313,.98309,2.19659,2.19647,2.19659,1.2132,0,2.19659-.98346,2.19659-2.19659v-1.43085c-.2196,.05426-.44489,.0824-.67108,.08356-.38348,.00134-.76202-.08606-1.10638-.25488Zm2.85748,5.96667h-1.77063l-.24835,1.02625,.6427,3.55347c.02936,.1629-.0274,.32983-.15033,.44092l-1.32489,1.19812c-.18689,.16876-.47241,.16418-.65363-.01062l-1.245-1.19812c-.11731-.11292-.16937-.27771-.13818-.43781l.55792-3.54321,.00189-.00995-.24652-1.01904h-1.77008c-.6615,.00372-1.29114,.28613-1.73364,.77783-.44269,.49176-.65735,1.14728-.5918,1.80566,.00153,.01593,.00183,.0321,.00183,.04803v2.57068c1.60132,1.27399,3.586,1.9704,5.63251,1.97601,1.99042,0,3.8728-.6424,5.31049-1.7301v-2.81628c0-.01593,.02441-.03522,.02588-.05151,.07611-.65582-.13165-1.31317-.57098-1.80621-.43958-.49298-1.0686-.77466-1.72919-.77411Zm-3.16321,5.21094l.79602-.71674-.52582-2.89667h-.55469l-.45813,2.90326,.74261,.71014Zm.69043-12.02441c.41998,.19879,.91327,.19501,1.39258,.02399v-.27386c.00812-.28833-.10242-.56763-.30524-.77222-.20306-.20502-.48138-.31769-.76965-.31183h-1.51239c.22687,.39941,.59747,1.05121,1.1947,1.33392Zm5.70569,9.46869c.15979-.91669-.19434-1.83838-.81213-2.52197-.61499-.69141-1.49518-1.08832-2.42029-1.09174h-6.34521c-.92847,.0025-1.81335,.39563-2.43768,1.08301-.62439,.68762-.93109,1.6059-.84442,2.5307v1.67181c-.66797-.72009-1.22369-1.53699-1.64825-2.42279-.10333-.22253-.19604-.45184-.28082-.68182-.03027-.08258-.06061-.16559-.08868-.2489-.95691-2.85779-.44049-6.00409,1.37976-8.40601,.07861-.10327,.15973-.20599,.24182-.30487,1.7276-2.09052,4.29962-3.2995,7.0116-3.29584,1.40472-.00397,2.79102,.32013,4.0481,.94672,1.4964,.74438,2.76013,1.8855,3.65302,3.29828,2.29077,3.67493,1.68207,8.45374-1.45679,11.43695v-1.99353Zm-3.35443-9.71887c.00781-.5423-.2038-1.06531-.5863-1.44971-.38287-.3844-.90448-.59808-1.44708-.59253h-2.22467c-.54456-.00616-1.06873,.2066-1.45465,.5907-.38599,.38409-.60126,.90704-.59747,1.45154v2.69916c0,1.74261,1.41248,3.15515,3.15509,3.15515,1.74231,0,3.15509-1.41254,3.15509-3.15515v-2.69916Zm-2.7851,7.7027l.14941-.63904h-.83118l.14948,.63904h.53229Zm-10.07532,.75067c.07996-.07269,.28113-.1485,.41931-.22681-.20367-.63336-.41931-1.284-.41931-1.9458v2.17261ZM.9585,18.39006c0-.2406,.0072-.48932,.02124-.7395l-.95697-.05432c-.01495,.26831-.02277,.5354-.02277,.79352,0,.13818,.00189,.27948,.00653,.4184l.95789-.03088c-.00403-.1286-.00592-.25903-.00592-.38721Zm.8797,4.94568l-.91046,.29803c.16846,.51538,.36194,1.03119,.5744,1.53381l.88269-.37372c-.20245-.47809-.38623-.96851-.54663-1.45813Zm-.72717-3.02777l-.94696,.14728c.07489,.48334,.18005,1.00751,.32104,1.60254l.93262-.22125c-.13507-.57007-.23553-1.07019-.3067-1.52856Zm2.84698,9.09869c.33044,.43457,.68268,.8587,1.04651,1.26019l.71014-.64337c-.3454-.38153-.67987-.78442-.99408-1.1972l-.76257,.58038Zm-1.75586-2.76007c.25275,.48169,.52887,.9585,.82031,1.41644l.80872-.51416c-.2774-.43622-.53979-.88953-.78033-1.3476l-.84869,.44531Zm15.11493,8.9267c-1.83911-.09821-3.64972-.49512-5.36115-1.17474-.7276-.29138-1.43341-.63428-2.112-1.02618-.24146-.13953-.48328-.28741-.71796-.43927-.1167-.0755-.23181-.15234-.34601-.23035-.50641-.34601-.99341-.71918-1.45959-1.11755l-.62311,.72845c.49237,.4209,1.0069,.815,1.54169,1.18073,.11981,.08167,.24268,.16351,.36603,.24341,.24829,.16058,.50385,.31696,.7594,.46448,.71826,.41473,1.46515,.77789,2.23529,1.08649,1.8078,.7182,3.72009,1.13763,5.66235,1.24152,.36951,.02087,.89655,.03931,1.33832,.03931,.07642,0,.1507-.00031,.22058-.00159l-.01587-.9585c-.45093,.0072-1.07239-.01282-1.48798-.03619ZM3.64917,8.37651h2.54816v-.9585h-1.36218c1.55353-1.79785,3.42719-3.29144,5.52612-4.40533,2.81396-1.48956,5.89551-2.19318,8.91046-2.02277,5.84503,.33008,9.625,3.28546,11.76703,5.70923,2.72137,3.0799,4.38318,7.10461,4.55859,11.04474,.02271,.50415,.0199,1.00897-.00818,1.51257l.95697,.05371c.02991-.53638,.03284-1.07361,.00842-1.61029-.185-4.1554-1.93353-8.39667-4.79779-11.63849C28.60345,2.4467,24.11676,.26854,19.32574,.02672c-3.18939-.18036-6.44836,.55505-9.4173,2.12634-2.19031,1.16974-4.151,2.72546-5.78784,4.59259v-1.48425h-.9585v2.6106c.00159,.27148,.21625,.49329,.48706,.50452Z"/>
</svg>