<svg width="46" height="46" viewBox="0 0 46 46" fill="none" xmlns="http://www.w3.org/2000/svg">
<g filter="url(#filter0_d_8_743)">
<path d="M8.25195 17.802H13.5256C13.5712 15.5655 13.9319 13.5305 14.5749 11.6681C13.4567 11.0063 12.4308 10.1991 11.5244 9.2681C9.50282 11.6628 8.34993 14.67 8.25195 17.802Z" fill="#4361EE"/>
<path d="M19.7923 4.4534C16.8821 4.98102 14.2128 6.41473 12.166 8.54984C12.9854 9.39977 13.9108 10.1405 14.9192 10.7545C15.991 8.14173 17.6497 5.97915 19.7923 4.4534Z" fill="#4361EE"/>
<path d="M19.7923 32.101C17.6497 30.5756 15.9913 28.4127 14.9192 25.8002C13.9108 26.4142 12.9854 27.155 12.166 28.0049C14.2128 30.14 16.8821 31.5737 19.7923 32.101Z" fill="#4361EE"/>
<path d="M21.8386 18.7605H14.4854C14.5219 20.6847 14.8451 22.5927 15.4445 24.4214C17.4283 23.4099 19.6127 22.8545 21.8386 22.7949V18.7605Z" fill="#4361EE"/>
<path d="M21.8384 23.754C19.7307 23.8189 17.6645 24.3556 15.7915 25.3244C17.0237 28.3899 19.0427 30.7974 21.8384 32.2096V23.754Z" fill="#4361EE"/>
<path d="M21.8386 13.7599C19.613 13.7015 17.4283 13.1474 15.4445 12.1374C14.8386 13.9658 14.515 15.876 14.4854 17.802H21.8386V13.7599Z" fill="#4361EE"/>
<path d="M21.8384 4.34512C19.0427 5.7573 17.024 8.16481 15.7915 11.2304C17.6645 12.1992 19.7307 12.7358 21.8384 12.8007V4.34512Z" fill="#4361EE"/>
<path d="M22.7969 27.744C22.8768 26.3662 23.3863 25.0504 24.0811 23.8548C23.6562 23.802 23.1963 23.7687 22.7969 23.754V27.744Z" fill="#4361EE"/>
<path d="M29.1548 12.1121C27.1841 13.1268 25.0122 13.6897 22.7969 13.7596V17.802H30.0933C30.049 15.7253 29.7361 13.8416 29.1548 12.1121Z" fill="#4361EE"/>
<path d="M36.2845 19.4641C36.3042 19.2295 36.3192 19.0002 36.3273 18.7605H31.0527C31.0514 18.8404 31.0495 18.9059 31.0474 18.9793C31.6152 18.8807 32.1906 18.831 32.7672 18.8304C33.9681 18.8282 35.1597 19.0429 36.2845 19.4641Z" fill="#4361EE"/>
<path d="M24.7504 22.8089C24.8371 22.6947 24.927 22.5821 25.0178 22.4729C26.307 20.9122 28.0387 19.7783 29.9848 19.2208C30.016 19.2117 30.0472 19.2055 30.0781 19.1967C30.0843 19.0507 30.0896 18.9203 30.093 18.7605H22.7969V22.7949C23.4168 22.8173 24.0353 22.8751 24.6487 22.9677C24.6874 22.915 24.7105 22.8613 24.7504 22.8089Z" fill="#4361EE"/>
<path d="M36.3266 17.802C36.2246 14.6522 35.0592 11.6297 33.0198 9.2269C32.1209 10.1595 31.1031 10.9701 29.9927 11.6378C30.6426 13.5084 31.007 15.5655 31.0529 17.802H36.3266Z" fill="#4361EE"/>
<path d="M22.7969 12.8004C24.9024 12.723 26.9641 12.1779 28.8328 11.2045C27.5997 8.15108 25.5127 5.75325 22.7969 4.34512V12.8004Z" fill="#4361EE"/>
<path d="M29.6462 10.7233C30.6462 10.1052 31.5629 9.36202 32.3751 8.51178C30.3326 6.39756 27.678 4.9779 24.7856 4.4534C26.9201 5.97322 28.5741 8.12488 29.6462 10.7233Z" fill="#4361EE"/>
<path d="M11.5244 27.2913C12.4308 26.3603 13.4567 25.5531 14.5749 24.8913C13.9319 23.0292 13.5712 20.9971 13.5256 18.7605H8.25195C8.34993 21.8916 9.50313 24.8979 11.5244 27.2913Z" fill="#4361EE"/>
<path d="M31.4454 23.3871C31.3118 23.1618 31.1942 22.9275 31.0931 22.686C30.621 22.8279 30.2996 23.2651 30.3052 23.7581V23.9606C30.7464 23.9287 31.1567 23.7222 31.4454 23.3871Z" fill="#4361EE"/>
<path d="M32.9208 24.8551C32.5773 24.6869 32.2687 24.4551 32.0113 24.1721C31.5595 24.6308 30.9486 24.8982 30.3052 24.9191V26.4573C30.3052 27.6704 31.2883 28.6539 32.5018 28.6539C33.7149 28.6539 34.6983 27.6704 34.6983 26.4573V25.0264C34.4787 25.0807 34.2534 25.1088 34.0272 25.11C33.6437 25.1113 33.2653 25.0239 32.9208 24.8551Z" fill="#4361EE"/>
<path d="M35.7788 30.8218H34.0082L33.7598 31.848L34.4025 35.4015C34.4319 35.5644 34.3751 35.7313 34.2522 35.8424L32.9273 37.0405C32.7404 37.2093 32.4549 37.2047 32.2737 37.0299L31.0287 35.8318C30.9114 35.7189 30.8593 35.5541 30.8905 35.394L31.4484 31.8508C31.4484 31.8483 31.4496 31.8433 31.4503 31.8408L31.2038 30.8218H29.4337C28.7722 30.8255 28.1426 31.1079 27.7001 31.5996C27.2574 32.0914 27.0427 32.7469 27.1083 33.4053C27.1098 33.4212 27.1101 33.4374 27.1101 33.4533V36.024C28.7114 37.298 30.6961 37.9944 32.7426 38C34.733 38 36.6154 37.3576 38.0531 36.2699V33.4536C38.0531 33.4377 38.0775 33.4184 38.079 33.4021C38.1551 32.7463 37.9473 32.0889 37.508 31.5959C37.0684 31.1029 36.4394 30.8212 35.7788 30.8218Z" fill="#4361EE"/>
<path d="M32.6161 36.0327L33.4121 35.316L32.8863 32.4193H32.3316L31.8735 35.3226L32.6161 36.0327Z" fill="#4361EE"/>
<path d="M33.6237 22.6744H32.1113C32.3382 23.0738 32.7088 23.7256 33.306 24.0083C33.726 24.2071 34.2193 24.2033 34.6986 24.0323V23.7584C34.7067 23.4701 34.5962 23.1908 34.3934 22.9862C34.1903 22.7812 33.912 22.6685 33.6237 22.6744Z" fill="#4361EE"/>
<path d="M36.815 20.7353C35.5579 20.1087 34.1716 19.7846 32.7669 19.7886C30.0549 19.7849 27.4829 20.9939 25.7553 23.0844C25.6732 23.1833 25.5921 23.286 25.5135 23.3893C23.6932 25.7912 23.1768 28.9375 24.1338 31.7953C24.1618 31.8786 24.1921 31.9616 24.2224 32.0442C24.3072 32.2742 24.3999 32.5035 24.5032 32.726C24.9278 33.6118 25.4835 34.4287 26.1516 35.1488V33.477C26.0648 32.5522 26.3715 31.6339 26.9959 30.9463C27.6202 30.2589 28.5051 29.8658 29.4336 29.8633H35.7788C36.7039 29.8667 37.5841 30.2636 38.1991 30.955C38.8169 31.6386 39.171 32.5603 39.0113 33.477V35.4705C42.1501 32.4873 42.7589 27.7085 40.468 24.0336C39.5751 22.6208 38.3114 21.4797 36.815 20.7353ZM35.6568 26.4573C35.6568 28.1999 34.244 29.6124 32.5017 29.6124C30.7591 29.6124 29.3466 28.1999 29.3466 26.4573V23.7581C29.3428 23.2136 29.5581 22.6907 29.9441 22.3066C30.3301 21.9225 30.8542 21.7097 31.3987 21.7159H33.6234C34.166 21.7103 34.6877 21.924 35.0705 22.3084C35.453 22.6928 35.6646 23.2158 35.6568 23.7581V26.4573Z" fill="#4361EE"/>
<path d="M32.8722 31.4608L33.0216 30.8218H32.1904L32.3399 31.4608H32.8722Z" fill="#4361EE"/>
<path d="M22.7969 32.2115C22.8768 32.1388 23.078 32.063 23.2162 31.9847C23.0125 31.3513 22.7969 30.7007 22.7969 30.0389V32.2115Z" fill="#4361EE"/>
<path d="M5.17726 18.3902C5.17726 18.1496 5.18444 17.9009 5.19848 17.6507L4.24153 17.5964C4.22655 17.8647 4.21875 18.1318 4.21875 18.3899C4.21875 18.5281 4.22062 18.6694 4.2253 18.8083L5.18319 18.7774C5.17913 18.6488 5.17726 18.5184 5.17726 18.3902Z" fill="#4361EE"/>
<path d="M6.05694 23.3359L5.14648 23.6339C5.31497 24.1493 5.50842 24.6651 5.7209 25.1677L6.60359 24.794C6.4011 24.3159 6.21732 23.8255 6.05694 23.3359Z" fill="#4361EE"/>
<path d="M5.32978 20.3081L4.38281 20.4554C4.4577 20.9387 4.56285 21.4629 4.70388 22.0579L5.63649 21.8367C5.50139 21.2666 5.40092 20.7665 5.32978 20.3081Z" fill="#4361EE"/>
<path d="M8.17676 29.4068C8.50718 29.8414 8.85945 30.2655 9.22326 30.667L9.9334 30.0236C9.588 29.6421 9.25352 29.2392 8.93932 28.8264L8.17676 29.4068Z" fill="#4361EE"/>
<path d="M6.4209 26.6467C6.67363 27.1284 6.94976 27.6052 7.24119 28.0632L8.04993 27.549C7.77255 27.1128 7.51014 26.6595 7.26958 26.2014L6.4209 26.6467Z" fill="#4361EE"/>
<path d="M21.5362 35.5734C19.6972 35.4752 17.8866 35.0783 16.1752 34.3987C15.4476 34.1073 14.7418 33.7644 14.0632 33.3725C13.8217 33.233 13.5799 33.0851 13.3452 32.9332C13.2285 32.8577 13.1134 32.7809 12.9992 32.7029C12.4928 32.3569 12.0057 31.9837 11.5396 31.5853L10.9165 32.3138C11.4089 32.7347 11.9234 33.1288 12.4582 33.4945C12.578 33.5762 12.7009 33.658 12.8242 33.7379C13.0725 33.8985 13.3281 34.0549 13.5836 34.2024C14.3019 34.6171 15.0488 34.9803 15.8189 35.2889C17.6267 36.0071 19.539 36.4265 21.4813 36.5304C21.8508 36.5513 22.3777 36.5697 22.8196 36.5697C22.896 36.5697 22.9703 36.5694 23.0402 36.5681L23.0242 35.6096C22.5734 35.6168 21.9518 35.5968 21.5362 35.5734Z" fill="#4361EE"/>
<path d="M7.86791 8.37667H10.4161V7.41816H9.05388C10.6074 5.62033 12.4811 4.12671 14.58 3.01282C17.394 1.52326 20.4755 0.819666 23.4905 0.990026C29.3355 1.32014 33.1155 4.27554 35.2575 6.69928C37.9789 9.77917 39.6407 13.8039 39.8161 17.744C39.8388 18.2482 39.836 18.753 39.8079 19.2566L40.7649 19.3103C40.7948 18.7739 40.7977 18.2367 40.7733 17.7C40.5883 13.5446 38.8398 9.30335 35.9755 6.06152C32.8222 2.44682 28.3355 0.268647 23.5445 0.0268358C20.3551 -0.153509 17.0961 0.58191 14.1272 2.15322C11.9369 3.32296 9.9762 4.87867 8.33937 6.74577V5.26151H7.38086V7.87214C7.38242 8.14359 7.59709 8.36544 7.86791 8.37667Z" fill="#4361EE"/>
</g>
<defs>
<filter id="filter0_d_8_743" x="0" y="0" width="46" height="46" filterUnits="userSpaceOnUse" color-interpolation-filters="sRGB">
<feFlood flood-opacity="0" result="BackgroundImageFix"/>
<feColorMatrix in="SourceAlpha" type="matrix" values="0 0 0 0 0 0 0 0 0 0 0 0 0 0 0 0 0 0 127 0" result="hardAlpha"/>
<feOffset dy="4"/>
<feGaussianBlur stdDeviation="2"/>
<feComposite in2="hardAlpha" operator="out"/>
<feColorMatrix type="matrix" values="0 0 0 0 0 0 0 0 0 0.141176 0 0 0 0 0.490196 0 0 0 0.3 0"/>
<feBlend mode="normal" in2="BackgroundImageFix" result="effect1_dropShadow_8_743"/>
<feBlend mode="normal" in="SourceGraphic" in2="effect1_dropShadow_8_743" result="shape"/>
</filter>
</defs>
</svg>
