<?xml version="1.0" encoding="UTF-8"?>
<svg id="Layer_1" data-name="Layer 1" xmlns="http://www.w3.org/2000/svg" viewBox="0 0 33.25 33.25002">
  <defs>
    <style>
      .cls-1 {
        fill: #4361ee;
      }
    </style>
  </defs>
  <path class="cls-1" d="M7.70697,17.81252c2.37415,0,4.29871,1.92462,4.29871,4.29883,0,2.37408-1.92456,4.29865-4.29871,4.29865s-4.29877-1.92456-4.29877-4.29865c0-2.37421,1.92462-4.29883,4.29877-4.29883Zm17.83594,8.59747c2.37408,0,4.29871-1.92456,4.29871-4.29865,0-2.37421-1.92462-4.29883-4.29871-4.29883s-4.29883,1.92462-4.29883,4.29883c0,2.37408,1.92474,4.29865,4.29883,4.29865Zm-12.65851,.23163l-1.47247-.48688c-1.0108,.92786-2.33295,1.44275-3.70502,1.44275s-2.69427-.51489-3.70502-1.44275l-1.46655,.48688c-.73822,.2453-1.38043,.71692-1.83551,1.3479C.24469,28.62044-.00012,29.37862,0,30.15663v1.60901c.00012,.39368,.15656,.77106,.43494,1.0495,.27832,.27826,.65582,.43475,1.04944,.43488H13.9353c.39362-.00012,.77112-.15662,1.0495-.43488,.27832-.27844,.43469-.65582,.43488-1.0495v-1.60901c.00012-.77802-.24469-1.53619-.69977-2.16711-.45514-.63098-1.09729-1.1026-1.83551-1.3479Zm17.83008,0l-1.46655-.48688c-1.0108,.92786-2.33295,1.44275-3.70502,1.44275s-2.69434-.51489-3.70502-1.44275l-1.47247,.48688c-.73822,.2453-1.38043,.71692-1.83551,1.3479-.45508,.63092-.70001,1.3891-.69983,2.16711v1.60901c.00012,.39368,.15662,.77106,.43494,1.0495,.27826,.27826,.65576,.43475,1.0495,.43488h12.45087c.39362-.00012,.77112-.15662,1.04944-.43488,.27838-.27844,.43475-.65582,.435-1.0495v-1.60901c.00006-.77802-.24469-1.53619-.69983-2.16711-.45508-.63098-1.09729-1.1026-1.83551-1.3479ZM.17389,19.41994c.05511,.05505,.12054,.09888,.19263,.12866,.07202,.02979,.14923,.04523,.22723,.0451,.078,.00012,.15521-.01532,.22723-.0451,.07208-.02979,.13751-.07361,.19263-.12866,.05518-.05524,.09888-.12061,.12872-.19275,.02985-.07196,.04517-.14917,.04517-.22717v-7.125c.00055-.47229,.18835-.92499,.52228-1.25897,.33392-.33392,.78668-.52173,1.25897-.52234h2.72296l-.76776,.76782c-.05573,.05499-.09998,.12036-.13031,.19257-.03027,.0722-.04596,.14972-.0462,.22791-.00031,.07831,.01495,.15594,.0448,.22821,.02985,.07239,.07373,.13812,.12909,.19348,.0553,.0553,.12109,.09924,.19342,.12903,.07239,.02991,.14996,.0451,.22821,.04492,.07831-.00031,.15576-.01605,.22791-.04633,.07227-.03027,.13763-.07458,.19263-.13031l1.78131-1.78119c.05511-.05511,.09888-.12061,.12872-.19263,.02991-.07196,.04517-.14929,.04517-.22717,0-.078-.01526-.15521-.04517-.22717-.02985-.07214-.07361-.13751-.12872-.19263l-1.78131-1.78125c-.11151-.11023-.26215-.17175-.41901-.17126-.1568,.00049-.30701,.06299-.41791,.17389-.11084,.1109-.1734,.26111-.17389,.41791s.0611,.3075,.17126,.41901l.76776,.7677H2.96875c-.78711,.00104-1.54163,.31403-2.09821,.87061C.31403,10.33333,.00092,11.08791,0,11.87502v7.125C0,19.07802,.01532,19.15523,.04517,19.22719c.02985,.07214,.07355,.13751,.12872,.19275ZM32.37939,9.77681c-.55652-.55652-1.3111-.86957-2.09821-.87048h-2.7229l.76782-.76782c.0556-.05499,.09991-.12036,.13019-.19257s.04602-.1496,.04633-.22791c.00018-.07831-.01501-.15588-.04492-.22821-.02979-.07239-.07373-.13812-.12903-.19348-.05536-.05536-.12109-.09924-.19348-.12903-.07239-.02985-.1499-.0451-.22821-.04486s-.1557,.01599-.22791,.04626c-.0722,.03033-.13757,.07458-.19257,.13025l-1.78131,1.78125c-.05511,.05511-.09888,.12061-.12872,.19263-.02985,.07208-.04529,.14929-.04529,.22717,0,.078,.01544,.15521,.04529,.22717,.02985,.07214,.07361,.13751,.12872,.19263l1.78131,1.78131c.05499,.05566,.12036,.09991,.19257,.13019s.1496,.04608,.22791,.04633c.07831,.00018,.15594-.01501,.22821-.0448,.07239-.02991,.13812-.07373,.19348-.12915,.0553-.0553,.09924-.12109,.12903-.19348,.02991-.07227,.0451-.1499,.04492-.22821-.00031-.07819-.01605-.1557-.04633-.22791-.03027-.07208-.07458-.13757-.13031-.19257l-.7677-.7677h2.7229c.47229,.00049,.92511,.18829,1.25903,.52222,.33386,.33398,.52179,.78674,.52228,1.25897v7.125c0,.15747,.0625,.30847,.17389,.41992,.11133,.11127,.26239,.17389,.4198,.17389,.15753,0,.30853-.06262,.41992-.17389,.11127-.11145,.17389-.26245,.17389-.41992v-7.125c-.00092-.78711-.31403-1.54163-.87061-2.09821Zm-15.75397,7.44202c-3.79401-1.00354-7.6712-3.43793-7.67725-7.66541l.07129-6.45996c.00183-.12085,.04034-.23834,.11023-.33691,.07001-.09857,.16821-.17365,.28168-.21527L16.42352,.03566c.13037-.04755,.27338-.04755,.40375,0l7.01221,2.50562c.11353,.04163,.21173,.1167,.28162,.21527,.07001,.09857,.1084,.21606,.11029,.33691l.07123,6.45404c-.00592,4.23944-3.8772,6.66193-7.67719,7.67133Zm2.95807-10.55988c0-.15704-.06238-.30762-.1734-.41864s-.2616-.17334-.41858-.17334c-.15704,0-.30762,.06232-.41864,.17334l-2.74896,2.7431-1.16382-1.1637c-.05487-.05511-.12012-.09869-.19202-.12848-.07178-.02985-.1488-.04523-.22656-.04523-.0777,0-.15472,.01538-.22662,.04523-.07178,.02979-.13696,.07336-.19202,.12848-.11115,.11212-.17365,.26361-.17365,.42157,0,.1579,.0625,.30945,.17365,.42151l1.57941,1.57941c.11169,.11243,.26312,.17639,.42163,.1781,.07849-.00031,.15619-.01617,.22858-.04681,.07239-.03046,.138-.0752,.19293-.13129l3.16467-3.16467c.11102-.11102,.1734-.2616,.1734-.41858Z"/>
</svg>