<svg width="42" height="44" viewBox="0 0 42 44" fill="none" xmlns="http://www.w3.org/2000/svg">
<g filter="url(#filter0_d_8_778)">
<path d="M12.082 28.785C14.4561 28.785 16.3807 26.8604 16.3807 24.4863C16.3807 22.1121 14.4561 20.1875 12.082 20.1875C9.70782 20.1875 7.7832 22.1121 7.7832 24.4863C7.7832 26.8604 9.70782 28.785 12.082 28.785Z" fill="#4361EE"/>
<path d="M29.9179 28.785C32.292 28.785 34.2166 26.8604 34.2166 24.4863C34.2166 22.1121 32.292 20.1875 29.9179 20.1875C27.5438 20.1875 25.6191 22.1121 25.6191 24.4863C25.6191 26.8604 27.5438 28.785 29.9179 28.785Z" fill="#4361EE"/>
<path d="M17.2594 29.0166L15.7869 28.5297C14.7761 29.4576 13.454 29.9725 12.0819 29.9725C10.7098 29.9725 9.38762 29.4576 8.37687 28.5297L6.91031 29.0166C6.17209 29.2619 5.52988 29.7335 5.0748 30.3645C4.61971 30.9954 4.37487 31.7536 4.375 32.5316V34.1406C4.37514 34.5343 4.53158 34.9117 4.80992 35.1901C5.08827 35.4684 5.46574 35.6249 5.85938 35.625H18.3103C18.7039 35.6249 19.0814 35.4684 19.3598 35.1901C19.6381 34.9117 19.7945 34.5343 19.7947 34.1406V32.5316C19.7948 31.7536 19.55 30.9954 19.0949 30.3645C18.6398 29.7335 17.9976 29.2619 17.2594 29.0166Z" fill="#4361EE"/>
<path d="M35.0895 29.0166L33.6229 28.5297C32.6121 29.4576 31.29 29.9725 29.9179 29.9725C28.5458 29.9725 27.2236 29.4576 26.2129 28.5297L24.7404 29.0166C24.0022 29.2619 23.36 29.7335 22.9049 30.3645C22.4498 30.9954 22.2049 31.7536 22.2051 32.5316V34.1406C22.2052 34.5343 22.3617 34.9117 22.64 35.1901C22.9183 35.4684 23.2958 35.6249 23.6895 35.625H36.1404C36.534 35.6249 36.9115 35.4684 37.1898 35.1901C37.4682 34.9117 37.6246 34.5343 37.6248 34.1406V32.5316C37.6249 31.7536 37.3801 30.9954 36.925 30.3645C36.4699 29.7335 35.8277 29.2619 35.0895 29.0166Z" fill="#4361EE"/>
<path d="M4.96875 21.9687C5.04673 21.9688 5.12395 21.9534 5.19599 21.9236C5.26804 21.8938 5.3335 21.85 5.38864 21.7949C5.44378 21.7397 5.48751 21.6743 5.51734 21.6022C5.54718 21.5302 5.56252 21.453 5.5625 21.375V14.25C5.56302 13.7777 5.75085 13.325 6.08479 12.991C6.41872 12.6571 6.87149 12.4693 7.34375 12.4687H10.0667L9.29893 13.2365C9.24324 13.2915 9.19897 13.3569 9.16867 13.4291C9.13838 13.5013 9.12265 13.5788 9.12241 13.657C9.12216 13.7353 9.1374 13.8129 9.16725 13.8852C9.19709 13.9576 9.24095 14.0233 9.2963 14.0787C9.35165 14.134 9.41741 14.1779 9.48977 14.2077C9.56214 14.2376 9.63969 14.2528 9.71797 14.2526C9.79625 14.2523 9.8737 14.2366 9.94588 14.2063C10.0181 14.176 10.0835 14.1317 10.1385 14.076L11.9198 12.2948C11.9749 12.2397 12.0187 12.1742 12.0485 12.1022C12.0784 12.0302 12.0937 11.9529 12.0937 11.875C12.0937 11.797 12.0784 11.7198 12.0485 11.6478C12.0187 11.5757 11.9749 11.5103 11.9198 11.4552L10.1385 9.67393C10.027 9.56375 9.87632 9.50219 9.71951 9.50269C9.5627 9.50319 9.41246 9.5657 9.30158 9.67658C9.19071 9.78746 9.1282 9.93771 9.12771 10.0945C9.12722 10.2513 9.18879 10.402 9.29897 10.5135L10.0667 11.2812H7.34375C6.55667 11.2822 5.8021 11.5952 5.24555 12.1518C4.689 12.7083 4.37592 13.4629 4.375 14.25V21.375C4.37498 21.453 4.39032 21.5302 4.42016 21.6022C4.44999 21.6743 4.49372 21.7397 4.54886 21.7949C4.604 21.85 4.66946 21.8938 4.74151 21.9236C4.81355 21.9534 4.89077 21.9688 4.96875 21.9687Z" fill="#4361EE"/>
<path d="M34.6562 11.2813H31.9333L32.7011 10.5135C32.7567 10.4585 32.801 10.3931 32.8313 10.3209C32.8616 10.2487 32.8773 10.1713 32.8776 10.093C32.8778 10.0147 32.8626 9.93715 32.8327 9.86478C32.8029 9.79241 32.759 9.72666 32.7037 9.67131C32.6483 9.61596 32.5826 9.57211 32.5102 9.54227C32.4378 9.51243 32.3603 9.49719 32.282 9.49744C32.2037 9.49769 32.1263 9.51341 32.0541 9.54371C31.9819 9.57401 31.9165 9.61828 31.8615 9.67398L30.0802 11.4552C30.0251 11.5103 29.9813 11.5758 29.9515 11.6478C29.9216 11.7199 29.9062 11.7971 29.9062 11.875C29.9062 11.953 29.9216 12.0302 29.9515 12.1022C29.9813 12.1743 30.0251 12.2397 30.0802 12.2948L31.8615 14.0761C31.9165 14.1318 31.9819 14.176 32.0541 14.2063C32.1263 14.2366 32.2037 14.2524 32.282 14.2526C32.3603 14.2528 32.4379 14.2376 32.5102 14.2078C32.5826 14.1779 32.6483 14.1341 32.7037 14.0787C32.759 14.0234 32.8029 13.9576 32.8327 13.8852C32.8626 13.8129 32.8778 13.7353 32.8776 13.657C32.8773 13.5788 32.8616 13.5013 32.8313 13.4291C32.801 13.357 32.7567 13.2915 32.701 13.2365L31.9333 12.4688H34.6562C35.1285 12.4693 35.5813 12.6571 35.9152 12.991C36.2491 13.325 36.437 13.7778 36.4375 14.25V21.375C36.4375 21.5325 36.5 21.6835 36.6114 21.7949C36.7227 21.9062 36.8738 21.9688 37.0312 21.9688C37.1887 21.9688 37.3397 21.9062 37.4511 21.7949C37.5624 21.6835 37.625 21.5325 37.625 21.375V14.25C37.6241 13.4629 37.311 12.7084 36.7544 12.1518C36.1979 11.5953 35.4433 11.2822 34.6562 11.2813Z" fill="#4361EE"/>
<path d="M28.6771 11.9225L28.6059 5.46845C28.604 5.34758 28.5656 5.23012 28.4956 5.13154C28.4257 5.03296 28.3275 4.9579 28.214 4.91626L21.2018 2.41063C21.0714 2.36312 20.9284 2.36312 20.798 2.41063L13.7859 4.91626C13.6724 4.9579 13.5742 5.03296 13.5043 5.13154C13.4343 5.23012 13.3959 5.34758 13.394 5.46845L13.3228 11.9284C13.3287 16.1559 17.2059 18.5903 20.9999 19.5938C24.7999 18.5844 28.6712 16.1619 28.6771 11.9225ZM23.7846 9.45251L20.6199 12.6172C20.565 12.6733 20.4994 12.718 20.427 12.7485C20.3547 12.7791 20.2769 12.795 20.1984 12.7953C20.0399 12.7936 19.8885 12.7296 19.7768 12.6172L18.1974 11.0378C18.0862 10.9257 18.0238 10.7742 18.0238 10.6163C18.0238 10.4583 18.0862 10.3068 18.1974 10.1947C18.2524 10.1396 18.3176 10.096 18.3894 10.0662C18.4613 10.0364 18.5383 10.021 18.616 10.021C18.6938 10.021 18.7708 10.0364 18.8426 10.0662C18.9145 10.096 18.9797 10.1396 19.0346 10.1947L20.1984 11.3584L22.9474 8.61532C23.0585 8.5043 23.209 8.44193 23.366 8.44193C23.523 8.44193 23.6736 8.5043 23.7846 8.61532C23.8956 8.72634 23.958 8.87691 23.958 9.03392C23.958 9.19092 23.8956 9.34149 23.7846 9.45251Z" fill="#4361EE"/>
</g>
<defs>
<filter id="filter0_d_8_778" x="-2" y="0" width="46" height="46" filterUnits="userSpaceOnUse" color-interpolation-filters="sRGB">
<feFlood flood-opacity="0" result="BackgroundImageFix"/>
<feColorMatrix in="SourceAlpha" type="matrix" values="0 0 0 0 0 0 0 0 0 0 0 0 0 0 0 0 0 0 127 0" result="hardAlpha"/>
<feOffset dy="4"/>
<feGaussianBlur stdDeviation="2"/>
<feComposite in2="hardAlpha" operator="out"/>
<feColorMatrix type="matrix" values="0 0 0 0 0 0 0 0 0 0.141176 0 0 0 0 0.490196 0 0 0 0.3 0"/>
<feBlend mode="normal" in2="BackgroundImageFix" result="effect1_dropShadow_8_778"/>
<feBlend mode="normal" in="SourceGraphic" in2="effect1_dropShadow_8_778" result="shape"/>
</filter>
</defs>
</svg>
