<svg width="46" height="46" viewBox="0 0 46 46" fill="none" xmlns="http://www.w3.org/2000/svg">
<g filter="url(#filter0_d_31_4524)">
<path d="M8.78363 19.1581C8.78363 17.0161 10.53 15.2683 12.6734 15.2683C14.8154 15.2683 16.561 17.0169 16.561 19.1581C16.561 21.3 14.8146 23.0479 12.6734 23.0479C10.53 23.0479 8.78363 21.2993 8.78363 19.1581ZM13.9003 32.49C13.9003 29.5932 15.7498 27.1129 18.3245 26.1636C17.4049 25.4778 16.2671 25.0696 15.0358 25.0696H10.3088C7.27699 25.0696 4.79883 27.5478 4.79883 30.5796V33.8282C4.79883 35.0713 5.81711 36.0896 7.06027 36.0896H13.9166C13.9062 35.9738 13.8995 35.8558 13.8995 35.7386V32.49H13.9003ZM35.6916 25.0696H30.9624C29.7341 25.0696 28.5956 25.4778 27.676 26.1636C30.2514 27.1121 32.1002 29.5932 32.1002 32.49V35.7386C32.1002 35.8566 32.0935 35.9738 32.0831 36.0896H38.9395C40.1826 36.0896 41.2009 35.0713 41.2009 33.8282V30.5796C41.2016 27.5478 38.7235 25.0696 35.6916 25.0696ZM33.327 23.0479C35.469 23.0479 37.2168 21.2993 37.2168 19.1581C37.2168 17.0161 35.4682 15.2683 33.327 15.2683C31.1858 15.2683 29.4372 17.0169 29.4372 19.1581C29.4372 21.2993 31.1851 23.0479 33.327 23.0479ZM25.3641 26.98H20.6371C17.6053 26.98 15.1271 29.4582 15.1271 32.49V35.7386C15.1271 36.9817 16.1432 38 17.3886 38H28.6127C29.858 38 30.8741 36.9817 30.8741 35.7386V32.49C30.8741 29.4582 28.3952 26.98 25.3641 26.98ZM19.1112 21.0677C19.1112 23.2112 20.8575 24.9575 22.9988 24.9575C25.1429 24.9575 26.8886 23.2112 26.8886 21.0677C26.8886 18.9258 25.1422 17.1802 22.9988 17.1802C20.8575 17.1802 19.1112 18.9265 19.1112 21.0677ZM22.9995 9.37309C22.9869 9.37309 22.9743 9.37754 22.9661 9.3857C22.9579 9.39609 22.9513 9.40648 22.9513 9.42133C22.9513 9.43395 22.9579 9.44656 22.9661 9.45473C22.9743 9.46512 22.9869 9.46957 22.9995 9.46957C23.0143 9.46957 23.027 9.46512 23.0351 9.45473C23.0433 9.44656 23.05 9.43395 23.05 9.42133C23.05 9.40648 23.044 9.39609 23.0351 9.3857C23.0262 9.3768 23.0136 9.37309 22.9995 9.37309ZM23.1361 3.28195C23.1383 3.25895 23.1361 3.24188 23.1316 3.23148H23.1294C23.1234 3.21664 23.1145 3.20402 23.1019 3.19141C23.0893 3.17656 23.0767 3.16617 23.0663 3.16172C23.0559 3.15727 23.0388 3.15578 23.0158 3.15578H22.9839C22.9609 3.15578 22.9438 3.15801 22.9334 3.16172C22.923 3.16617 22.9104 3.17656 22.8956 3.19141C22.8852 3.20402 22.8763 3.21664 22.8704 3.23148C22.8681 3.23594 22.8659 3.24188 22.8637 3.24633V3.28195L22.998 6.01246L23.1361 3.28195ZM16.1536 11.8594C15.8715 11.3711 15.8715 10.8137 16.1536 10.3261L21.6717 0.765937C21.9538 0.277578 22.4377 0 22.9995 0C23.5636 0 24.0475 0.279805 24.3295 0.765937L29.8477 10.3261C30.1297 10.8144 30.1297 11.3718 29.8477 11.8594C29.5656 12.3478 29.0817 12.6254 28.5199 12.6254H17.4806C16.9173 12.6254 16.4348 12.3478 16.1536 11.8594ZM24.2738 9.42133C24.2738 9.07027 24.1328 8.75039 23.9013 8.51883C23.6697 8.28949 23.352 8.14625 22.9988 8.14625C22.6477 8.14625 22.33 8.28949 22.0985 8.51883C21.8669 8.75039 21.7259 9.07027 21.7259 9.42133C21.7259 9.77238 21.8669 10.0923 22.0985 10.3216C22.33 10.5532 22.6477 10.6964 22.9988 10.6964C23.352 10.6964 23.6697 10.5532 23.9013 10.3216C24.1328 10.0923 24.2738 9.77238 24.2738 9.42133ZM21.6443 3.3391L21.8187 6.86969C21.8335 7.18289 21.9701 7.4627 22.1809 7.66309C22.3931 7.86273 22.6774 7.98742 22.9891 7.98742H23.0121C23.3238 7.98742 23.6073 7.86348 23.8204 7.66309C24.0304 7.46344 24.1677 7.18363 24.1825 6.86969L24.357 3.3391C24.3673 3.1543 24.3399 2.97543 24.2768 2.80695L24.279 2.80473C24.2182 2.63848 24.1209 2.48707 23.9888 2.34828C23.8604 2.21395 23.7113 2.10855 23.545 2.03656C23.3787 1.96457 23.2014 1.92969 23.0158 1.92969H22.9839C22.7991 1.92969 22.6217 1.96531 22.454 2.0373C22.29 2.10855 22.1408 2.21395 22.0102 2.34902C21.8795 2.48781 21.783 2.63922 21.7222 2.80547C21.714 2.82848 21.7073 2.85148 21.7014 2.87523C21.6546 3.02367 21.6361 3.17879 21.6443 3.3391Z" fill="white"/>
</g>
<defs>
<filter id="filter0_d_31_4524" x="0" y="0" width="46" height="46" filterUnits="userSpaceOnUse" color-interpolation-filters="sRGB">
<feFlood flood-opacity="0" result="BackgroundImageFix"/>
<feColorMatrix in="SourceAlpha" type="matrix" values="0 0 0 0 0 0 0 0 0 0 0 0 0 0 0 0 0 0 127 0" result="hardAlpha"/>
<feOffset dy="4"/>
<feGaussianBlur stdDeviation="2"/>
<feComposite in2="hardAlpha" operator="out"/>
<feColorMatrix type="matrix" values="0 0 0 0 0 0 0 0 0 0.141176 0 0 0 0 0.490196 0 0 0 0.3 0"/>
<feBlend mode="normal" in2="BackgroundImageFix" result="effect1_dropShadow_31_4524"/>
<feBlend mode="normal" in="SourceGraphic" in2="effect1_dropShadow_31_4524" result="shape"/>
</filter>
</defs>
</svg>
