<?xml version="1.0" encoding="UTF-8"?>
<svg id="Layer_1" data-name="Layer 1" xmlns="http://www.w3.org/2000/svg" viewBox="0 0 36.40207 38">
  <defs>
    <style>
      .cls-1 {
        fill: #fff;
      }
    </style>
  </defs>
  <path class="cls-1" d="M3.9848,19.1581c0-2.142,1.74637-3.8898,3.88977-3.8898,2.142,0,3.8876,1.7486,3.8876,3.8898,0,2.1419-1.7464,3.8898-3.8876,3.8898-2.1434,0-3.88977-1.7486-3.88977-3.8898Zm5.11667,13.3319c0-2.8968,1.8495-5.3771,4.4242-6.3264-.9196-.6858-2.0574-1.094-3.2887-1.094H5.50997c-3.03181,0-5.50997,2.4782-5.50997,5.51v3.2486c0,1.2431,1.01828,2.2614,2.26144,2.2614h6.85633c-.0104-.1158-.0171-.2338-.0171-.351v-3.2486h.0008Zm21.7913-7.4204h-4.7292c-1.2283,0-2.3668,.4082-3.2864,1.094,2.5754,.9485,4.4242,3.4296,4.4242,6.3264v3.2486c0,.118-.0067,.2352-.0171,.351h6.8564c1.2431,0,2.2614-1.0183,2.2614-2.2614v-3.2486c.0007-3.0318-2.4774-5.51-5.5093-5.51Zm-2.3646-2.0217c2.142,0,3.8898-1.7486,3.8898-3.8898,0-2.142-1.7486-3.8898-3.8898-3.8898s-3.8898,1.7486-3.8898,3.8898,1.7479,3.8898,3.8898,3.8898Zm-7.9629,3.9321h-4.727c-3.0318,0-5.51,2.4782-5.51,5.51v3.2486c0,1.2431,1.0161,2.2614,2.2615,2.2614h11.2241c1.2453,0,2.2614-1.0183,2.2614-2.2614v-3.2486c0-3.0318-2.4789-5.51-5.51-5.51Zm-6.2529-5.9123c0,2.1435,1.7463,3.8898,3.8876,3.8898,2.1441,0,3.8898-1.7463,3.8898-3.8898,0-2.1419-1.7464-3.8875-3.8898-3.8875-2.1413,0-3.8876,1.7463-3.8876,3.8875Zm3.8883-11.69461c-.0126,0-.0252,.00445-.0334,.01261-.0082,.01039-.0148,.02078-.0148,.03563,0,.01262,.0066,.02523,.0148,.0334,.0082,.01039,.0208,.01484,.0334,.01484,.0148,0,.0275-.00445,.0356-.01484,.0082-.00817,.0149-.02078,.0149-.0334,0-.01485-.006-.02524-.0149-.03563-.0089-.0089-.0215-.01261-.0356-.01261Zm.1366-6.09114c.0022-.023,0-.04007-.0045-.05047h-.0022c-.006-.01484-.0149-.02746-.0275-.04007-.0126-.01485-.0252-.02524-.0356-.02969-.0104-.00445-.0275-.00594-.0505-.00594h-.0319c-.023,0-.0401,.00223-.0505,.00594-.0104,.00445-.023,.01484-.0378,.02969-.0104,.01261-.0193,.02523-.0252,.04007l-.0067,.01485v.03562l.1343,2.73051,.1381-2.73051Zm-6.9825,8.57745c-.2821-.4883-.2821-1.0457,0-1.5333L16.87287,.76594c.2821-.48836,.766-.76594,1.3278-.76594,.5641,0,1.048,.27981,1.33,.76594l5.5182,9.56016c.282,.4883,.282,1.0457,0,1.5333-.2821,.4884-.766,.766-1.3278,.766H12.68177c-.5633,0-1.0458-.2776-1.327-.766Zm8.1202-2.43807c0-.35106-.141-.67094-.3725-.9025-.2316-.22934-.5493-.37258-.9025-.37258-.3511,0-.6688,.14324-.9003,.37258-.2316,.23156-.3726,.55144-.3726,.9025s.141,.67097,.3726,.90027c.2315,.2316,.5492,.3748,.9003,.3748,.3532,0,.6709-.1432,.9025-.3748,.2315-.2293,.3725-.54922,.3725-.90027Zm-2.6295-6.08223l.1744,3.53059c.0148,.3132,.1514,.59301,.3622,.7934,.2122,.19964,.4965,.32433,.8082,.32433h.023c.3117,0,.5952-.12394,.8083-.32433,.21-.19965,.3473-.47946,.3621-.7934l.1745-3.53059c.0103-.1848-.0171-.36367-.0802-.53215l.0022-.00222c-.0608-.16625-.1581-.31766-.2902-.45645-.1284-.13433-.2775-.23973-.4438-.31172s-.3436-.10687-.5292-.10687h-.0319c-.1848,0-.3622,.03562-.5299,.10761-.164,.07125-.3132,.17665-.4438,.31172-.1307,.13879-.2272,.2902-.288,.45645-.0082,.02301-.0149,.04601-.0208,.06976-.0468,.14844-.0653,.30356-.0571,.46387Z"/>
</svg>