<?xml version="1.0" encoding="UTF-8"?>
<svg id="Layer_1" data-name="Layer 1" xmlns="http://www.w3.org/2000/svg" viewBox="0 0 35.46942 31.66739">
  <defs>
    <style>
      .cls-1 {
        fill: #4361ee;
      }
    </style>
  </defs>
  <path class="cls-1" d="M4.4361,13.93363c.34973,0,.6333,.28363,.6333,.6333,0,.34979-.28357,.63342-.6333,.63342-.34979,0-.63336-.28363-.63336-.63342,0-.34967,.28357-.6333,.63336-.6333Zm6.96735,.6333c0-.34967-.28363-.6333-.63342-.6333s-.6333,.28363-.6333,.6333c0,.34979,.28351,.63342,.6333,.63342s.63342-.28363,.63342-.63342Zm17.7326,11.40002h-3.08881c-.15814-.005-.31323,.04388-.43982,.13879-.12659,.09479-.21716,.22998-.25677,.38312-.01483,.09058-.01001,.18329,.0141,.27191,.02411,.0885,.06689,.1709,.12561,.24146,.05859,.07062,.13165,.12781,.21436,.16772,.08264,.03992,.17291,.06171,.26459,.06372h.24701c.12671,.00415,.24933,.04578,.35229,.11957,.10315,.07373,.18201,.17639,.22681,.29492,.0448,.11859,.05341,.2478,.0249,.37115-.02856,.12354-.09308,.23584-.1853,.32263-1.39166,1.28522-3.2052,2.01721-5.099,2.05841-2.16766,.02069-4.284-.66003-6.03308-1.94049l-.89752,.90057c1.99103,1.5152,4.42871,2.3266,6.9306,2.30658,2.19409-.04218,4.29724-.88477,5.91339-2.36938,.09204-.07758,.20404-.12781,.32324-.14478,.1192-.01691,.24066,.00006,.35071,.04907,.10999,.04901,.20386,.12799,.271,.22791,.06708,.10004,.10468,.2168,.1084,.3371,.00159,.0921,.02301,.18274,.06268,.26569,.03967,.08313,.09668,.15674,.1673,.21582,.0705,.05908,.15289,.10242,.24158,.12701,.08875,.0246,.18164,.02979,.27252,.01538,.15332-.0376,.28888-.12677,.38403-.25269,.09515-.12579,.14404-.28058,.13849-.43829v-3.09949c0-.16803-.06671-.3291-.18555-.44794-.11865-.11871-.27979-.18549-.44775-.18549Zm1.89996-8.23328v1.26666c0,.33594-.13336,.65814-.37097,.89563-.23749,.23761-.55969,.37097-.89563,.37097h-1.26666c-.33594,0-.65814-.13336-.89569-.37097-.23755-.23749-.37103-.55969-.37103-.89563v-1.26666h-3.79999c-.21619-.00214-.43048-.0415-.6333-.11652v3.9165c0,.16797,.06671,.3291,.18549,.44781,.11884,.11877,.27991,.18549,.44781,.18549h11.40002c.16797,0,.32904-.06671,.44788-.18549,.11871-.11871,.18549-.27985,.18549-.44781v-3.9165c-.20288,.07501-.41711,.11438-.63336,.11652h-3.80005Zm-15.89038-6.72729c-.25159-1.82166-1.15393-3.49072-2.54028-4.69879-1.38641-1.20813-3.16321-1.87366-5.00214-1.87366s-3.61566,.66553-5.00208,1.87366C1.21472,7.51566,.31244,9.18473,.06085,11.00638c-.13495,1.04578-.04486,2.1084,.2644,3.11639,.3092,1.00806,.83038,1.93848,1.52856,2.7287,1.4386,1.66815,2.30646,3.75256,2.47699,5.94885h1.37244v-5.06665c0-.33594-.13348-.65814-.37103-.89575-.23749-.23749-.55969-.37097-.89563-.37097-.50391,0-.98718-.20007-1.34351-.55652-.35632-.35626-.55652-.8396-.55652-1.34351s.2002-.98718,.55652-1.34351c.35632-.35626,.8396-.55646,1.34351-.55646h6.33337c.50385,0,.98718,.2002,1.34344,.55646,.35632,.35632,.55652,.8396,.55652,1.34351s-.2002,.98724-.55652,1.34351c-.35626,.35645-.8396,.55652-1.34344,.55652-.33606,0-.65814,.13348-.89575,.37097-.23749,.23761-.37097,.55981-.37097,.89575v5.06665h1.37238c.17041-2.19647,1.03833-4.28107,2.47699-5.94958,.69812-.7901,1.2193-1.72028,1.5285-2.72827,.30933-1.008,.39941-2.07043,.26453-3.11609ZM5.94434,15.71336c.31671,.2334,.5744,.53772,.75238,.88849,.17804,.35083,.27148,.7384,.27301,1.13184v5.06665h1.2666v-5.06665c.00098-.39392,.09418-.78223,.27228-1.13361,.1781-.35144,.43604-.65619,.75311-.88989-.19379-.24731-.3208-.54022-.36908-.85071-.04822-.31055-.01599-.62823,.09357-.92261h-2.76636c.11017,.29486,.1427,.61316,.09448,.92419-.04828,.3111-.17572,.60461-.37,.85229ZM21.53644,1.26701c1.89337,.04144,3.70642,.7735,5.09772,2.05829,.0921,.08673,.15656,.19879,.18518,.32202,.02869,.12323,.0202,.25226-.02429,.37073-.04443,.11841-.12292,.22113-.22559,.29504-.10272,.07397-.22491,.11591-.35144,.12054h-.24829c-.0921,.00146-.1828,.02271-.26599,.06238s-.15692,.09674-.216,.16742-.10242,.15326-.12671,.24213c-.02441,.08887-.0293,.18195-.01447,.27289,.03955,.1532,.13019,.28827,.25677,.38312s.2818,.1438,.43988,.13873h3.0932c.16803,0,.3291-.06671,.44781-.18549,.11877-.11877,.18549-.27985,.18549-.44781V1.96744c.0058-.15771-.04297-.31256-.138-.43854-.09509-.12592-.23059-.21533-.38379-.25305-.09106-.01465-.1842-.00952-.27301,.01501-.08887,.02448-.17139,.06781-.24207,.12708-.07062,.0592-.12775,.13293-.16742,.21619-.03961,.08325-.06091,.17401-.06232,.26617-.00391,.12006-.0415,.23657-.10846,.33624-.06689,.09973-.16064,.17859-.2702,.2276-.10962,.04901-.2309,.06616-.34979,.04956-.11902-.0166-.23083-.06628-.32294-.14343C25.83514,.88505,23.73132,.04215,21.53644,.00034c-2.50104-.01947-4.93781,.79181-6.92798,2.30658l.8974,.90057c1.74835-1.28003,3.86377-1.96069,6.03058-1.94049Zm8.23376,16.46667h-1.26727v1.26666h1.26727v-1.26666Zm5.69922-4.43335v2.53333c0,.16797-.06677,.32898-.18549,.44781-.11884,.11877-.27991,.18549-.44788,.18549h-11.40002c-.16791,0-.32898-.06671-.44781-.18549-.11877-.11884-.18549-.27985-.18549-.44781v-2.53333c0-.16797,.06671-.3291,.18549-.44788,.11884-.11877,.27991-.18549,.44781-.18549h1.90002v-.6333c0-.50391,.2002-.98718,.55646-1.34351,.35638-.35632,.8396-.55652,1.34351-.55652h3.79999c.50403,0,.98724,.2002,1.34351,.55652,.35638,.35632,.55652,.8396,.55652,1.34351v.6333h1.90002c.16797,0,.32904,.06671,.44788,.18549,.11871,.11877,.18549,.27991,.18549,.44788Zm-3.79999-1.26666c0-.16803-.06683-.3291-.18549-.44781-.11884-.11877-.27991-.18549-.44794-.18549h-3.79999c-.16791,0-.32898,.06671-.44781,.18549-.11877,.11871-.18549,.27979-.18549,.44781v.6333h5.06671v-.6333ZM11.4032,24.06693H3.80328c-.16797,0-.3291,.06683-.44788,.18555-.11877,.11877-.18549,.27985-.18549,.44788,0,.16791,.06671,.32898,.18549,.44781,.11877,.11877,.27991,.18549,.44788,.18549h7.59991c.16803,0,.3291-.06671,.44794-.18549,.11871-.11884,.18549-.27991,.18549-.44781,0-.16803-.06677-.3291-.18549-.44788-.11884-.11871-.27991-.18555-.44794-.18555Zm-5.06696,3.45453c.38568,.2218,.82196,.34082,1.26691,.34552,.44489-.0047,.88116-.12372,1.26691-.34552,.38568-.2218,.70795-.539,.93579-.92108H5.40039c.22791,.38208,.55011,.69928,.93585,.92108Z"/>
</svg>