<svg width="44" height="43" viewBox="0 0 44 43" fill="none" xmlns="http://www.w3.org/2000/svg">
<g filter="url(#filter0_d_10_745)">
<path d="M8.70023 18.3667C9.05001 18.3667 9.33356 18.0831 9.33356 17.7333C9.33356 17.3836 9.05001 17.1 8.70023 17.1C8.35045 17.1 8.06689 17.3836 8.06689 17.7333C8.06689 18.0831 8.35045 18.3667 8.70023 18.3667Z" fill="#4361EE"/>
<path d="M15.0332 18.3667C15.383 18.3667 15.6666 18.0831 15.6666 17.7333C15.6666 17.3836 15.383 17.1 15.0332 17.1C14.6835 17.1 14.3999 17.3836 14.3999 17.7333C14.3999 18.0831 14.6835 18.3667 15.0332 18.3667Z" fill="#4361EE"/>
<path d="M33.4002 29.1333H30.3114C30.1533 29.1283 29.9982 29.1772 29.8716 29.2721C29.7449 29.3669 29.6544 29.5021 29.6148 29.6552C29.6 29.7458 29.6048 29.8385 29.6289 29.9271C29.653 30.0156 29.6958 30.098 29.7545 30.1686C29.8131 30.2392 29.8862 30.2964 29.9689 30.3363C30.0515 30.3762 30.1418 30.398 30.2335 30.4H30.4805C30.6072 30.4042 30.7298 30.4458 30.8328 30.5196C30.9359 30.5933 31.0148 30.696 31.0596 30.8145C31.1043 30.9331 31.113 31.0623 31.0845 31.1857C31.0559 31.3092 30.9914 31.4215 30.8992 31.5083C29.5075 32.7935 27.694 33.5255 25.8002 33.5667C23.6325 33.5874 21.5162 32.9067 19.7671 31.6262L18.8696 32.5268C20.8606 34.042 23.2983 34.8534 25.8002 34.8334C27.9943 34.7912 30.0974 33.9486 31.7136 32.464C31.8056 32.3864 31.9176 32.3362 32.0368 32.3192C32.156 32.3023 32.2775 32.3193 32.3875 32.3683C32.4974 32.4173 32.5914 32.4963 32.6585 32.5962C32.7256 32.6962 32.7631 32.813 32.7669 32.9333C32.7685 33.0254 32.7899 33.116 32.8296 33.199C32.8693 33.2821 32.9263 33.3557 32.9968 33.4148C33.0674 33.4739 33.1498 33.5172 33.2385 33.5418C33.3272 33.5664 33.4201 33.5716 33.511 33.5572C33.6643 33.5196 33.7999 33.4304 33.895 33.3045C33.9902 33.1787 34.0391 33.0239 34.0335 32.8662V29.7667C34.0335 29.5987 33.9668 29.4376 33.848 29.3188C33.7293 29.2001 33.5682 29.1333 33.4002 29.1333Z" fill="#4361EE"/>
<path d="M35.3002 20.9V22.1667C35.3002 22.5026 35.1668 22.8248 34.9292 23.0623C34.6917 23.2999 34.3695 23.4333 34.0336 23.4333H32.7669C32.431 23.4333 32.1088 23.2999 31.8712 23.0623C31.6337 22.8248 31.5002 22.5026 31.5002 22.1667V20.9H27.7002C27.484 20.8979 27.2697 20.8585 27.0669 20.7835V24.7C27.0669 24.868 27.1336 25.0291 27.2524 25.1478C27.3712 25.2666 27.5323 25.3333 27.7002 25.3333H39.1002C39.2682 25.3333 39.4293 25.2666 39.5481 25.1478C39.6668 25.0291 39.7336 24.868 39.7336 24.7V20.7835C39.5307 20.8585 39.3165 20.8979 39.1002 20.9H35.3002Z" fill="#4361EE"/>
<path d="M19.4088 14.1727C19.1573 12.3511 18.2549 10.682 16.8685 9.47393C15.4821 8.26582 13.7053 7.60028 11.8664 7.60028C10.0275 7.60028 8.25071 8.26582 6.86432 9.47393C5.47792 10.682 4.5756 12.3511 4.32406 14.1727C4.18906 15.2185 4.2792 16.2811 4.58843 17.2891C4.89766 18.2972 5.41884 19.2276 6.11702 20.0178C7.55563 21.686 8.4235 23.7704 8.59399 25.9667H9.96642V20.9C9.96642 20.5641 9.83297 20.2419 9.59543 20.0043C9.35788 19.7668 9.0357 19.6333 8.69976 19.6333C8.19585 19.6333 7.71257 19.4332 7.35626 19.0768C6.99994 18.7205 6.79976 18.2372 6.79976 17.7333C6.79976 17.2294 6.99994 16.7461 7.35626 16.3898C7.71257 16.0335 8.19585 15.8333 8.69976 15.8333H15.0331C15.537 15.8333 16.0203 16.0335 16.3766 16.3898C16.7329 16.7461 16.9331 17.2294 16.9331 17.7333C16.9331 18.2372 16.7329 18.7205 16.3766 19.0768C16.0203 19.4332 15.537 19.6333 15.0331 19.6333C14.6972 19.6333 14.375 19.7668 14.1374 20.0043C13.8999 20.2419 13.7664 20.5641 13.7664 20.9V25.9667H15.1389C15.3092 23.7702 16.1771 21.6856 17.6158 20.0171C18.314 19.227 18.8351 18.2968 19.1443 17.2888C19.4536 16.2808 19.5437 15.2184 19.4088 14.1727Z" fill="#4361EE"/>
<path d="M11.2334 20.9V25.9667H12.5V20.9C12.501 20.5061 12.5942 20.1178 12.7723 19.7664C12.9504 19.415 13.2083 19.1102 13.5254 18.8765C13.3316 18.6292 13.2046 18.3363 13.1563 18.0258C13.1081 17.7153 13.1403 17.3976 13.2499 17.1032H10.4835C10.5937 17.3981 10.6262 17.7164 10.578 18.0274C10.5297 18.3385 10.4023 18.632 10.208 18.8797C10.5247 19.1131 10.7824 19.4174 10.9604 19.7682C11.1384 20.119 11.2319 20.5066 11.2334 20.9Z" fill="#4361EE"/>
<path d="M25.8001 4.43333C27.6935 4.4748 29.5065 5.20683 30.8978 6.49166C30.9899 6.57838 31.0544 6.69042 31.083 6.81367C31.1117 6.93692 31.1032 7.06589 31.0587 7.18436C31.0143 7.30282 30.9358 7.40549 30.8331 7.47944C30.7304 7.5534 30.6082 7.59534 30.4817 7.6H30.2334C30.1413 7.60143 30.0506 7.6227 29.9674 7.66235C29.8842 7.702 29.8105 7.7591 29.7514 7.82978C29.6923 7.90045 29.649 7.98303 29.6247 8.0719C29.6003 8.16077 29.5954 8.25385 29.6102 8.3448C29.6498 8.49796 29.7404 8.63308 29.867 8.72793C29.9936 8.82277 30.1488 8.8717 30.3069 8.86666H33.4001C33.5681 8.86666 33.7292 8.79994 33.8479 8.68116C33.9667 8.56239 34.0334 8.4013 34.0334 8.23333V5.1338C34.0392 4.9761 33.9904 4.82124 33.8954 4.69528C33.8003 4.56931 33.6648 4.47994 33.5116 4.4422C33.4205 4.42756 33.3274 4.43267 33.2386 4.45719C33.1497 4.4817 33.0672 4.52505 32.9965 4.58428C32.9259 4.64351 32.8688 4.71724 32.8291 4.80047C32.7895 4.8837 32.7682 4.97449 32.7668 5.06666C32.7629 5.1867 32.7253 5.30322 32.6583 5.40292C32.5914 5.50262 32.4977 5.58148 32.3881 5.63048C32.2785 5.67949 32.1572 5.69668 32.0383 5.68008C31.9193 5.66347 31.8075 5.61375 31.7154 5.5366C30.0988 4.05141 27.995 3.20852 25.8001 3.16666C23.2991 3.14721 20.8623 3.9585 18.8721 5.47326L19.7695 6.37386C21.5179 5.09381 23.6333 4.41314 25.8001 4.43333Z" fill="#4361EE"/>
<path d="M34.0339 20.9H32.7666V22.1667H34.0339V20.9Z" fill="#4361EE"/>
<path d="M39.1002 15.8333H37.2002V15.2C37.2002 14.6961 37 14.2128 36.6437 13.8565C36.2874 13.5002 35.8041 13.3 35.3002 13.3H31.5002C30.9963 13.3 30.513 13.5002 30.1567 13.8565C29.8004 14.2128 29.6002 14.6961 29.6002 15.2V15.8333H27.7002C27.5323 15.8333 27.3712 15.9 27.2524 16.0188C27.1336 16.1376 27.0669 16.2987 27.0669 16.4667V19C27.0669 19.168 27.1336 19.329 27.2524 19.4478C27.3712 19.5666 27.5323 19.6333 27.7002 19.6333H39.1002C39.2682 19.6333 39.4293 19.5666 39.5481 19.4478C39.6668 19.329 39.7336 19.168 39.7336 19V16.4667C39.7336 16.2987 39.6668 16.1376 39.5481 16.0188C39.4293 15.9 39.2682 15.8333 39.1002 15.8333ZM30.8669 15.8333V15.2C30.8669 15.032 30.9336 14.8709 31.0524 14.7522C31.1712 14.6334 31.3323 14.5667 31.5002 14.5667H35.3002C35.4682 14.5667 35.6293 14.6334 35.7481 14.7522C35.8668 14.8709 35.9336 15.032 35.9336 15.2V15.8333H30.8669Z" fill="#4361EE"/>
<path d="M15.6664 27.2333H8.06644C7.89847 27.2333 7.73738 27.3001 7.6186 27.4188C7.49983 27.5376 7.43311 27.6987 7.43311 27.8667C7.43311 28.0346 7.49983 28.1957 7.6186 28.3145C7.73738 28.4333 7.89847 28.5 8.06644 28.5H15.6664C15.8344 28.5 15.9955 28.4333 16.1143 28.3145C16.233 28.1957 16.2998 28.0346 16.2998 27.8667C16.2998 27.6987 16.233 27.5376 16.1143 27.4188C15.9955 27.3001 15.8344 27.2333 15.6664 27.2333Z" fill="#4361EE"/>
<path d="M11.8668 31.0333C12.3117 31.0286 12.748 30.9096 13.1337 30.6878C13.5194 30.466 13.8417 30.1488 14.0695 29.7667H9.66406C9.89194 30.1488 10.2142 30.466 10.5999 30.6878C10.9856 30.9096 11.4219 31.0286 11.8668 31.0333Z" fill="#4361EE"/>
</g>
<defs>
<filter id="filter0_d_10_745" x="-1" y="0" width="46" height="46" filterUnits="userSpaceOnUse" color-interpolation-filters="sRGB">
<feFlood flood-opacity="0" result="BackgroundImageFix"/>
<feColorMatrix in="SourceAlpha" type="matrix" values="0 0 0 0 0 0 0 0 0 0 0 0 0 0 0 0 0 0 127 0" result="hardAlpha"/>
<feOffset dy="4"/>
<feGaussianBlur stdDeviation="2"/>
<feComposite in2="hardAlpha" operator="out"/>
<feColorMatrix type="matrix" values="0 0 0 0 0 0 0 0 0 0.141176 0 0 0 0 0.490196 0 0 0 0.3 0"/>
<feBlend mode="normal" in2="BackgroundImageFix" result="effect1_dropShadow_10_745"/>
<feBlend mode="normal" in="SourceGraphic" in2="effect1_dropShadow_10_745" result="shape"/>
</filter>
</defs>
</svg>
