<svg width="44" height="45" viewBox="0 0 44 45" fill="none" xmlns="http://www.w3.org/2000/svg">
<g filter="url(#filter0_d_31_4504)">
<path d="M39.8124 35.138L33.3999 28.7137C34.6572 27.0302 35.2302 24.933 35.0039 22.8441C34.7775 20.7552 33.7684 18.8295 32.1797 17.4545C30.591 16.0794 28.5405 15.357 26.4407 15.4326C24.3409 15.5082 22.3477 16.3762 20.8619 17.8619C19.3762 19.3477 18.5082 21.3409 18.4326 23.4407C18.357 25.5405 19.0794 27.591 20.4545 29.1797C21.8295 30.7684 23.7552 31.7775 25.8441 32.0039C27.933 32.2302 30.0302 31.6572 31.7137 30.3999L38.138 36.8124L39.8124 35.138ZM26.5718 26.5762C26.3506 26.7955 26.0521 26.9192 25.7405 26.9205C25.5843 26.9214 25.4293 26.8915 25.2847 26.8324C25.14 26.7733 25.0084 26.6862 24.8974 26.5762L22.1068 23.7499L23.7812 22.0637L25.7405 24.023L29.7187 20.0568L31.393 21.743L26.5718 26.5762Z" fill="white"/>
<path d="M4.1875 32.0625V34.4375C4.1875 35.0674 4.43772 35.6715 4.88312 36.1169C5.32852 36.5623 5.93261 36.8125 6.5625 36.8125H22C22.6299 36.8125 23.234 36.5623 23.6794 36.1169C24.1248 35.6715 24.375 35.0674 24.375 34.4375V34.1644C22.7911 33.8071 21.3116 33.0876 20.0525 32.0625H4.1875Z" fill="white"/>
<path d="M16.6919 27.3125H8.37938V24.9375H16.1694C16.0743 24.1487 16.0743 23.3513 16.1694 22.5625H8.34375V20.1875H16.6562C17.2597 18.4866 18.284 16.9662 19.6337 15.768C20.9834 14.5699 22.6145 13.7331 24.375 13.3356V3.5625C24.375 2.93261 24.1248 2.32852 23.6794 1.88312C23.234 1.43772 22.6299 1.1875 22 1.1875H6.5625C5.93261 1.1875 5.32852 1.43772 4.88312 1.88312C4.43772 2.32852 4.1875 2.93261 4.1875 3.5625V29.6875H17.8675C17.3796 28.9471 16.9847 28.1494 16.6919 27.3125ZM10.7188 4.75H17.8438V7.125H10.7188V4.75Z" fill="white"/>
</g>
<defs>
<filter id="filter0_d_31_4504" x="-1" y="0" width="46" height="46" filterUnits="userSpaceOnUse" color-interpolation-filters="sRGB">
<feFlood flood-opacity="0" result="BackgroundImageFix"/>
<feColorMatrix in="SourceAlpha" type="matrix" values="0 0 0 0 0 0 0 0 0 0 0 0 0 0 0 0 0 0 127 0" result="hardAlpha"/>
<feOffset dy="4"/>
<feGaussianBlur stdDeviation="2"/>
<feComposite in2="hardAlpha" operator="out"/>
<feColorMatrix type="matrix" values="0 0 0 0 0 0 0 0 0 0.141176 0 0 0 0 0.490196 0 0 0 0.3 0"/>
<feBlend mode="normal" in2="BackgroundImageFix" result="effect1_dropShadow_31_4504"/>
<feBlend mode="normal" in="SourceGraphic" in2="effect1_dropShadow_31_4504" result="shape"/>
</filter>
</defs>
</svg>
