<?xml version="1.0" encoding="UTF-8"?>
<svg id="Layer_1" data-name="Layer 1" xmlns="http://www.w3.org/2000/svg" viewBox="0 0 35.62543 35.625">
  <defs>
    <style>
      .cls-1 {
        fill: #fff;
      }
    </style>
  </defs>
  <path class="cls-1" d="M29.21289,27.52618c1.25732-1.68347,1.83032-3.7807,1.60388-5.86957-.22626-2.08893-1.23535-4.01459-2.8241-5.38959-1.58868-1.37512-3.63916-2.09753-5.73895-2.02191-2.09979,.07556-4.09314,.9436-5.5788,2.42926-1.48572,1.48584-2.3537,3.479-2.42932,5.5788-.07562,2.09985,.64679,4.15033,2.02191,5.73901,1.375,1.58868,3.30066,2.59784,5.38959,2.82422,2.08887,.22632,4.1861-.34668,5.86957-1.604l6.42432,6.41248,1.67444-1.67438-6.41254-6.42432Zm-6.82806-2.13751c-.22125,.2193-.51971,.34302-.8313,.3443-.15631,.00092-.31122-.02899-.45593-.08807-.14459-.05908-.27618-.14618-.38721-.25623l-2.79059-2.82629,1.67438-1.68616,1.95935,1.95929,3.97815-3.96619,1.67432,1.68616-4.82117,4.83319Zm-6.51984,5.48633c1.25909,1.02509,2.73859,1.74457,4.32251,2.10187v.27313c0,.62988-.25018,1.23401-.69562,1.67938-.44537,.44543-1.0495,.69562-1.67938,.69562H2.375c-.62988,0-1.23401-.25018-1.67938-.69562-.44537-.44537-.69562-1.0495-.69562-1.67938v-2.375H15.86499Zm-3.3606-4.75H4.19189v-2.375h7.78998c-.09509-.78882-.09509-1.58618,0-2.375H4.15625v-2.375H12.46869c.60352-1.70093,1.62781-3.22131,2.97754-4.41949,1.34967-1.19812,2.98077-2.03491,4.74127-2.43243V2.375c0-.62988-.25018-1.23401-.69562-1.67938-.44537-.44537-1.0495-.69562-1.67938-.69562H2.375C1.74512,0,1.14099,.25024,.69562,.69562s-.69562,1.0495-.69562,1.67938V28.5H13.67999c-.48792-.74042-.88281-1.53809-1.1756-2.375ZM6.53131,3.5625h7.125v2.375H6.53131V3.5625Z"/>
</svg>