<?xml version="1.0" encoding="UTF-8"?>
<svg id="Layer_1" data-name="Layer 1" xmlns="http://www.w3.org/2000/svg" viewBox="0 0 36.94183 35.97614">
  <defs>
    <style>
      .cls-1 {
        fill: #fff;
      }
    </style>
  </defs>
  <path class="cls-1" d="M0,21.90625H36.94183v2.8067c0,.5777-.47021,1.04779-1.04791,1.04779H1.04785c-.5777,0-1.04785-.47009-1.04785-1.04779v-2.8067ZM36.94183,1.0481V21.09436H0V1.04816C0,.47015,.47015,0,1.04785,0H35.89392c.5777,0,1.04791,.47015,1.04791,1.0481Zm-5.85645,15.61652l-5.69958-4.14746-1.45758-1.0611c.52136-1.2262,.69086-2.57678,.47821-3.9256-.29913-1.89905-1.32031-3.5683-2.87494-4.69965-1.55481-1.13135-3.45691-1.58954-5.35626-1.29041-1.89935,.29938-3.5683,1.32031-4.69971,2.87512-1.13153,1.55481-1.58984,3.45697-1.29041,5.35632,.29938,1.89941,1.32037,3.5683,2.87518,4.69971,1.24402,.90546,2.71051,1.3797,4.22009,1.3797,.37714,0,.75659-.02972,1.13593-.08929,1.34906-.21265,2.58191-.78931,3.58838-1.6626l1.45709,1.06024,.00079,.00055,.00153,.00116,5.69812,4.1463c.28967,.21094,.62585,.31244,.95947,.31244,.50549,0,1.00427-.23322,1.32373-.67224,.53027-.72858,.36865-1.75287-.36005-2.2832Zm-5.84888-3.25226l-.9679,1.32996,5.37122,3.90881c.3667,.26703,.8822,.18579,1.14886-.18109,.26691-.36658,.18573-.8822-.18091-1.14893l-5.37128-3.90875Zm-1.67383-1.21802c-.13477,.23718-.28369,.46838-.44659,.69238s-.33691,.43665-.52136,.63782l1.01715,.74011,.96796-1.3302-1.01715-.74011Zm-.62445,21.05737h-.64673l-.00989,.00024-.00891-.00024H13.34283l-.00891,.00024-.00995-.00024h-.64667c-1.58862,0-2.90442,1.18945-3.10413,2.72443H26.0423c-.19971-1.53497-1.51581-2.72443-3.10406-2.72443Zm-7.94556-6.67896l-1.16455,5.867h7.95917l-1.16449-5.867h-5.63013Zm8.05634-15.14612c-.1651,.34088-.3623,.66949-.5899,.98242-.22858,.31409-.48181,.60345-.75653,.86639l-.01807,.01721-.0058,.00586c-.9281,.87909-2.09882,1.45789-3.38922,1.66144-.33667,.05298-.6734,.0791-1.00781,.0791-1.33905,0-2.64038-.42072-3.74408-1.224-2.84747-2.07214-3.47827-6.07458-1.40607-8.92181,1.00366-1.37946,2.48468-2.28528,4.16956-2.5509,.33673-.05304,.6734-.07916,1.00781-.07916,1.33942,0,2.64069,.42096,3.74438,1.22394,1.37921,1.00397,2.28534,2.48468,2.55072,4.16992,.20398,1.29346,.0116,2.58868-.54303,3.74469l-.01196,.0249Zm-.66693-3.0625l-.78247-.78247c-1.1496-1.14984-2.67828-1.7829-4.30408-1.7829-1.6261,0-3.15454,.63306-4.30444,1.7829l-.78247,.78247c-.15851,.15863-.15851,.41559,0,.57391l.78247,.78278c1.1499,1.1496,2.67834,1.7829,4.30444,1.7829,1.62579,0,3.15448-.6333,4.30408-1.7829l.78247-.78278c.15851-.15833,.15851-.41534,0-.57391Zm-1.35706-.20862l.49548,.49554-.49548,.49548c-2.05664,2.05688-5.4032,2.0567-7.46021,0l-.49554-.49548,.49554-.49554c2.05701-2.05664,5.4035-2.05664,7.46021,0Zm-2.34973,.49554c0-.76117-.61908-1.38025-1.38019-1.38025-.76123,0-1.38062,.61908-1.38062,1.38025s.61938,1.38049,1.38062,1.38049c.76111,0,1.38019-.61932,1.38019-1.38049Zm-1.38019-.5683c-.3136,0-.56848,.255-.56848,.56836,0,.3136,.25488,.56854,.56848,.56854,.31342,0,.56842-.25494,.56842-.56854,0-.31335-.255-.56836-.56842-.56836Z"/>
</svg>