<svg width="46" height="45" viewBox="0 0 46 45" fill="none" xmlns="http://www.w3.org/2000/svg">
<g filter="url(#filter0_d_31_4588)">
<path d="M41.4711 22.9182V25.7249C41.4711 26.3026 41.0009 26.7727 40.4232 26.7727H5.57716C4.99944 26.7727 4.5293 26.3026 4.5293 25.7249V22.9182H41.4711Z" fill="white"/>
<path d="M40.4232 1.01196H5.57716C4.99944 1.01196 4.5293 1.4821 4.5293 2.06009V22.1063H41.4711V2.06007C41.4711 1.4821 41.0009 1.01196 40.4232 1.01196ZM35.9747 19.9598C35.6553 20.3988 35.1565 20.632 34.651 20.632C34.3174 20.632 33.9812 20.5305 33.6915 20.3196L27.9934 16.1733C27.9929 16.1728 27.9924 16.1723 27.9919 16.1721C27.9916 16.1718 27.9914 16.1716 27.9911 16.1716L26.534 15.1113C25.5275 15.9846 24.2947 16.5613 22.9456 16.7739C22.5663 16.8335 22.1868 16.8632 21.8097 16.8632C20.3001 16.8632 18.8336 16.389 17.5896 15.4835C16.0348 14.3521 15.0138 12.6832 14.7144 10.7838C14.415 8.88446 14.8733 6.98232 16.0048 5.42751C17.1362 3.87271 18.8052 2.85174 20.7045 2.55236C22.6039 2.25322 24.506 2.71145 26.0608 3.84277C27.6154 4.97411 28.6366 6.64335 28.9357 8.54243C29.1484 9.89122 28.9789 11.2418 28.4575 12.468L29.9151 13.5291L35.6147 17.6766C36.3434 18.2069 36.505 19.2312 35.9747 19.9598Z" fill="white"/>
<path d="M35.318 19.482C35.0513 19.8489 34.5358 19.9301 34.1691 19.6631L28.7979 15.7543L29.7658 14.4243L35.1371 18.3331C35.5037 18.5998 35.5849 19.1154 35.318 19.482Z" fill="white"/>
<path d="M29.1091 13.9464L28.1412 15.2766L27.124 14.5365C27.3085 14.3353 27.4825 14.1227 27.6454 13.8987C27.8083 13.6747 27.9572 13.4435 28.092 13.2063L29.1091 13.9464Z" fill="white"/>
<path d="M30.5716 36.9881H14.1025C14.3022 35.4531 15.618 34.2637 17.2066 34.2637H17.8533C17.8566 34.2639 17.8599 34.2639 17.8632 34.2639C17.8662 34.2639 17.869 34.2639 17.8721 34.2637H26.802C26.8051 34.2639 26.8079 34.2639 26.8109 34.2639C26.8142 34.2639 26.8175 34.2639 26.8208 34.2637H27.4675C29.0558 34.2637 30.3719 35.4531 30.5716 36.9881Z" fill="white"/>
<path d="M26.3166 33.4517H18.3574L19.522 27.5847H25.1521L26.3166 33.4517Z" fill="white"/>
<path d="M28.1338 8.669C27.8684 6.98378 26.9623 5.50308 25.5831 4.49911C24.4794 3.69608 23.1781 3.27515 21.8387 3.27515C21.5043 3.27515 21.1676 3.30129 20.8309 3.3543C19.1459 3.61994 17.665 4.52573 16.6612 5.9052C14.5891 8.75246 15.2199 12.7549 18.0674 14.827C19.1711 15.6303 20.4724 16.051 21.8115 16.051C22.1459 16.051 22.4826 16.0249 22.8193 15.9719C24.1097 15.7684 25.2804 15.1896 26.2085 14.3105C26.2105 14.3085 26.2123 14.3064 26.2143 14.3046C26.2204 14.2991 26.2263 14.2932 26.2323 14.2874C26.5071 14.0245 26.7603 13.7351 26.9889 13.421C27.2165 13.1081 27.4137 12.7795 27.5788 12.4386C27.5829 12.4302 27.5869 12.4221 27.5907 12.4137C28.1454 11.2577 28.3378 9.96247 28.1338 8.669ZM26.9118 9.95004L26.1294 10.7328C24.9798 11.8824 23.4511 12.5157 21.8253 12.5157C20.1992 12.5157 18.6708 11.8824 17.5209 10.7328L16.7384 9.95004C16.5799 9.79171 16.5799 9.53471 16.7384 9.37612L17.5209 8.59363C18.6708 7.44377 20.1992 6.81073 21.8253 6.81073C23.4511 6.81073 24.9798 7.44377 26.1294 8.59363L26.9118 9.37612C27.0704 9.53468 27.0704 9.79171 26.9118 9.95004Z" fill="white"/>
<path d="M25.5553 9.1675C23.4986 7.11083 20.152 7.11083 18.0951 9.1675L17.5996 9.66302L18.0951 10.1585C20.152 12.2152 23.4986 12.2154 25.5553 10.1585L26.0508 9.66302L25.5553 9.1675ZM21.8253 11.0435C21.0642 11.0435 20.4448 10.4242 20.4448 9.66302C20.4448 8.90186 21.0642 8.28277 21.8253 8.28277C22.5865 8.28277 23.2056 8.90186 23.2056 9.66302C23.2056 10.4242 22.5865 11.0435 21.8253 11.0435Z" fill="white"/>
<path d="M22.3938 9.66307C22.3938 9.97666 22.1388 10.2316 21.8254 10.2316C21.5118 10.2316 21.2568 9.97666 21.2568 9.66307C21.2568 9.34971 21.5118 9.09473 21.8254 9.09473C22.1388 9.09473 22.3938 9.34974 22.3938 9.66307Z" fill="white"/>
</g>
<defs>
<filter id="filter0_d_31_4588" x="0" y="0" width="46" height="46" filterUnits="userSpaceOnUse" color-interpolation-filters="sRGB">
<feFlood flood-opacity="0" result="BackgroundImageFix"/>
<feColorMatrix in="SourceAlpha" type="matrix" values="0 0 0 0 0 0 0 0 0 0 0 0 0 0 0 0 0 0 127 0" result="hardAlpha"/>
<feOffset dy="4"/>
<feGaussianBlur stdDeviation="2"/>
<feComposite in2="hardAlpha" operator="out"/>
<feColorMatrix type="matrix" values="0 0 0 0 0 0 0 0 0 0.141176 0 0 0 0 0.490196 0 0 0 0.3 0"/>
<feBlend mode="normal" in2="BackgroundImageFix" result="effect1_dropShadow_31_4588"/>
<feBlend mode="normal" in="SourceGraphic" in2="effect1_dropShadow_31_4588" result="shape"/>
</filter>
</defs>
</svg>
